<?xml version="1.0" standalone="no"?>
<!DOCTYPE svg PUBLIC "-//W3C//DTD SVG 20010904//EN"
 "http://www.w3.org/TR/2001/REC-SVG-20010904/DTD/svg10.dtd">
<svg version="1.0" xmlns="http://www.w3.org/2000/svg"
 width="1536.000000pt" height="1024.000000pt" viewBox="0 0 1536.000000 1024.000000"
 preserveAspectRatio="xMidYMid meet">

<g transform="translate(0.000000,1024.000000) scale(0.100000,-0.100000)"
fill="#000000" stroke="none">
<path d="M8685 8504 c-163 -97 -257 -194 -309 -323 -103 -254 -60 -586 100
-769 89 -102 253 -197 392 -228 90 -20 255 -15 342 11 197 59 343 221 372 413
14 86 -7 215 -49 302 -39 81 -125 163 -197 189 -120 44 -222 38 -287 -16 -83
-70 -79 -172 8 -208 43 -18 43 -18 43 -2 0 46 92 62 158 28 73 -37 102 -88
103 -177 2 -98 -39 -177 -125 -243 -85 -66 -144 -85 -266 -85 -90 0 -115 4
-173 27 -89 35 -141 72 -218 155 -256 277 -194 707 135 925 73 49 96 67 84 67
-2 0 -52 -30 -113 -66z m-211 -810 c3 -8 2 -12 -4 -9 -6 3 -10 10 -10 16 0 14
7 11 14 -7z"/>
<path d="M9020 8485 c-249 -56 -420 -264 -420 -510 0 -134 39 -234 126 -325
75 -79 145 -112 245 -118 70 -4 84 -2 133 22 43 21 59 36 75 70 44 90 12 186
-63 191 -5 0 -13 9 -17 20 -6 13 -7 7 -3 -17 12 -76 -77 -114 -164 -69 -99 51
-141 160 -107 277 45 154 180 244 366 244 104 0 168 -14 268 -61 189 -88 321
-296 321 -506 0 -99 -15 -164 -61 -258 -70 -146 -164 -247 -285 -309 -110 -55
-179 -70 -334 -71 -115 0 -146 4 -210 24 -146 45 -217 87 -318 188 -50 50 -87
82 -81 70 7 -12 47 -56 89 -98 60 -60 95 -85 161 -117 139 -65 172 -74 313
-80 170 -6 244 7 374 69 93 43 113 58 202 147 108 109 162 185 211 300 31 72
34 85 37 216 5 161 -10 238 -64 351 -82 170 -230 284 -440 340 -85 23 -273 28
-354 10z m651 -412 c13 -16 12 -17 -3 -4 -10 7 -18 15 -18 17 0 8 8 3 21 -13z"/>
<path d="M8335 8164 c-37 -63 -74 -175 -86 -262 -15 -106 3 -275 41 -387 34
-101 128 -252 194 -313 101 -93 224 -161 364 -200 88 -25 112 -27 262 -27 161
1 167 2 255 34 199 73 280 123 374 228 58 65 122 186 147 278 18 70 30 295 18
343 -6 22 -9 -10 -9 -105 0 -246 -55 -394 -199 -539 -90 -90 -170 -135 -346
-195 -90 -31 -103 -32 -240 -33 -127 0 -157 4 -245 28 -120 32 -185 61 -274
120 -132 89 -240 234 -292 394 -27 84 -32 115 -37 232 -5 152 13 253 64 353
50 99 56 131 9 51z"/>
<path d="M2185 7994 c-93 -16 -225 -55 -302 -90 -104 -45 -254 -153 -353 -253
-199 -199 -289 -395 -293 -639 l-2 -113 -86 -117 c-117 -160 -192 -292 -254
-447 -38 -95 -85 -260 -85 -299 0 -20 -3 -26 -8 -18 -11 17 -27 -55 -48 -215
-13 -98 -15 -169 -11 -303 9 -264 44 -404 154 -625 145 -289 330 -481 613
-637 304 -168 749 -221 1145 -138 318 66 545 191 786 430 185 184 294 346 394
585 68 161 146 449 175 643 15 101 29 391 21 442 -5 31 -9 -18 -13 -150 -8
-210 -28 -358 -76 -550 -40 -158 -84 -300 -91 -296 -3 2 -7 -6 -7 -19 -3 -39
-55 -145 -73 -145 -10 0 -12 -3 -5 -8 7 -5 3 -24 -13 -61 -16 -37 -27 -51 -32
-42 -6 10 -10 9 -14 -4 -4 -9 -3 -13 3 -10 13 8 13 -1 -1 -27 -9 -17 -13 -18
-21 -7 -8 11 -8 10 -4 -4 13 -39 -176 -278 -317 -402 -38 -33 -74 -65 -81 -72
-49 -44 -132 -93 -150 -87 -15 4 -17 3 -7 -4 17 -12 -43 -49 -169 -103 -205
-88 -425 -131 -670 -129 -211 2 -246 4 -355 25 -291 55 -564 198 -772 405
-164 163 -324 460 -372 690 -37 180 -49 349 -33 495 l7 70 6 -105 c5 -100 5
-97 7 55 1 88 6 187 11 220 8 48 9 30 5 -85 -7 -242 20 -457 82 -637 36 -105
149 -331 202 -401 218 -292 508 -472 874 -543 92 -18 152 -22 318 -23 341 -2
499 32 750 160 322 165 560 424 721 784 126 282 184 611 183 1040 -1 219 -4
261 -27 390 -42 234 -101 411 -209 625 -102 204 -274 401 -453 520 -89 59
-291 151 -418 190 -175 53 -454 71 -632 39z m-214 -170 c-146 -81 -257 -181
-343 -307 -195 -287 -181 -627 35 -862 146 -160 323 -233 537 -223 l95 4 -55
-13 c-30 -8 -111 -16 -180 -19 -227 -11 -346 32 -491 176 -69 68 -94 102 -127
170 -125 253 -105 499 59 742 96 142 231 248 429 335 99 43 121 42 41 -3z
m607 -496 c77 -29 193 -110 228 -160 74 -103 104 -190 104 -303 0 -254 -155
-445 -462 -570 -139 -57 -250 -78 -413 -78 -212 -1 -286 19 -429 116 -66 45
-154 131 -198 195 -41 59 -86 159 -93 207 l-6 40 25 -50 c55 -109 213 -249
363 -321 118 -57 325 -78 493 -50 248 42 485 192 576 366 26 49 29 65 29 145
0 77 -4 98 -27 147 -58 124 -172 199 -313 206 -102 5 -179 -21 -240 -83 -52
-51 -69 -99 -63 -176 5 -65 27 -98 79 -119 37 -16 37 -32 -2 -64 -49 -42 -109
-29 -162 33 -38 46 -50 94 -44 174 12 135 93 256 215 320 112 59 225 67 340
25z m209 -38 c280 -128 485 -418 562 -796 68 -334 43 -677 -75 -1024 -26 -74
-51 -142 -56 -150 -8 -12 -9 -12 -4 2 3 10 16 75 30 145 58 301 62 650 10 918
-75 382 -320 794 -540 909 -66 34 -67 36 -29 30 22 -3 68 -19 102 -34z m208
-501 c69 -136 108 -234 144 -367 27 -97 37 -144 56 -252 14 -75 17 -388 6
-474 -30 -223 -88 -414 -183 -598 -218 -423 -573 -585 -920 -418 -179 85 -302
228 -378 438 -92 252 -98 592 -16 898 34 125 70 210 87 206 50 -13 150 -22
245 -22 285 0 562 109 748 296 56 56 116 175 135 267 l12 57 20 -22 c11 -13
26 -32 35 -43 8 -11 0 12 -20 50 -36 73 -57 134 -37 105 6 -8 36 -63 66 -121z
m-1720 -138 c-3 -13 -24 -50 -45 -81 -84 -124 -183 -348 -226 -515 -56 -211
-55 -519 2 -725 91 -330 345 -648 634 -793 101 -50 49 -36 -70 19 -223 105
-395 282 -523 539 -84 169 -125 311 -152 525 -39 317 2 534 161 852 54 109
120 218 130 218 4 0 3 -7 0 -16 -3 -9 -2 -12 5 -9 6 4 8 14 5 22 -3 8 6 32 21
53 l27 37 18 -51 c10 -28 16 -62 13 -75z m334 -568 c-23 -68 -69 -284 -70
-333 l-1 -35 -10 40 c-15 62 -4 248 22 357 l23 97 28 -35 28 -35 -20 -56z"/>
<path d="M1800 7740 c-9 -6 -10 -10 -3 -10 6 0 15 5 18 10 8 12 4 12 -15 0z"/>
<path d="M1694 7677 c-33 -24 -77 -64 -99 -89 -45 -51 -109 -138 -102 -138 3
0 29 32 57 70 55 74 153 167 158 151 2 -6 -19 -38 -47 -71 -28 -34 -51 -64
-51 -68 1 -4 13 9 28 28 15 19 47 57 72 83 36 40 58 77 45 77 -1 0 -29 -19
-61 -43z"/>
<path d="M1573 7478 c-12 -16 -24 -48 -18 -48 2 0 11 14 20 30 16 31 15 40 -2
18z"/>
<path d="M1466 7409 c-10 -17 -16 -33 -13 -36 3 -3 13 9 22 27 21 41 14 48 -9
9z"/>
<path d="M1511 7424 c0 -11 3 -14 6 -6 3 7 2 16 -1 19 -3 4 -6 -2 -5 -13z"/>
<path d="M1511 7344 c-12 -31 -20 -58 -18 -61 2 -2 14 22 25 54 12 31 20 59
18 61 -2 2 -14 -22 -25 -54z"/>
<path d="M1436 7343 c-6 -14 -5 -15 5 -6 7 7 10 15 7 18 -3 3 -9 -2 -12 -12z"/>
<path d="M1406 7264 c-4 -14 -5 -29 -2 -31 3 -3 8 7 12 21 3 15 4 29 1 32 -2
3 -8 -7 -11 -22z"/>
<path d="M1482 7250 c0 -14 2 -19 5 -12 2 6 2 18 0 25 -3 6 -5 1 -5 -13z"/>
<path d="M1391 7204 c0 -11 3 -14 6 -6 3 7 2 16 -1 19 -3 4 -6 -2 -5 -13z"/>
<path d="M1472 7180 c0 -19 2 -27 5 -17 2 9 2 25 0 35 -3 9 -5 1 -5 -18z"/>
<path d="M1382 7150 c0 -14 2 -19 5 -12 2 6 2 18 0 25 -3 6 -5 1 -5 -13z"/>
<path d="M1373 7065 c0 -22 2 -30 4 -17 2 12 2 30 0 40 -3 9 -5 -1 -4 -23z"/>
<path d="M1472 7070 c0 -19 2 -27 5 -17 2 9 2 25 0 35 -3 9 -5 1 -5 -18z"/>
<path d="M1472 7010 c0 -14 2 -19 5 -12 2 6 2 18 0 25 -3 6 -5 1 -5 -13z"/>
<path d="M1382 6990 c0 -14 4 -36 8 -50 6 -20 8 -21 8 -5 0 11 -4 34 -8 50 -7
27 -8 27 -8 5z"/>
<path d="M1481 6944 c0 -11 3 -14 6 -6 3 7 2 16 -1 19 -3 4 -6 -2 -5 -13z"/>
<path d="M1401 6894 c0 -11 3 -14 6 -6 3 7 2 16 -1 19 -3 4 -6 -2 -5 -13z"/>
<path d="M1501 6880 c0 -8 4 -22 9 -30 12 -18 12 -2 0 25 -6 13 -9 15 -9 5z"/>
<path d="M1440 6784 c0 -11 69 -124 76 -124 3 0 2 6 -3 13 -4 6 -22 36 -40 66
-18 30 -33 50 -33 45z"/>
<path d="M1555 6760 c9 -16 18 -30 21 -30 2 0 -2 14 -11 30 -9 17 -18 30 -21
30 -2 0 2 -13 11 -30z"/>
<path d="M1580 6716 c0 -2 8 -10 18 -17 15 -13 16 -12 3 4 -13 16 -21 21 -21
13z"/>
<path d="M1610 6677 c0 -2 15 -16 33 -33 l32 -29 -29 33 c-28 30 -36 37 -36
29z"/>
<path d="M1560 6605 c13 -14 26 -25 28 -25 3 0 -5 11 -18 25 -13 14 -26 25
-28 25 -3 0 5 -11 18 -25z"/>
<path d="M1680 6606 c0 -2 8 -10 18 -17 15 -13 16 -12 3 4 -13 16 -21 21 -21
13z"/>
<path d="M1647 6529 c12 -15 73 -53 73 -46 0 2 -19 17 -42 32 -24 16 -38 22
-31 14z"/>
<path d="M1830 6491 c14 -11 30 -21 35 -21 11 0 -7 14 -40 31 -13 7 -12 3 5
-10z"/>
<path d="M1760 6460 c8 -5 20 -10 25 -10 6 0 3 5 -5 10 -8 5 -19 10 -25 10 -5
0 -3 -5 5 -10z"/>
<path d="M1815 6440 c11 -5 29 -8 40 -8 16 0 15 2 -5 8 -34 11 -60 11 -35 0z"/>
<path d="M1925 6430 c-33 -6 -27 -7 34 -9 41 0 72 1 70 3 -10 8 -68 12 -104 6z"/>
<path d="M2791 7266 c2 -2 15 -9 29 -15 24 -11 24 -11 6 3 -16 13 -49 24 -35
12z"/>
<path d="M2845 7231 c-2 -5 3 -15 12 -22 9 -8 14 -9 10 -2 -4 6 -2 13 5 15 8
3 6 7 -5 11 -9 3 -19 2 -22 -2z"/>
<path d="M2900 7165 c13 -14 26 -25 28 -25 3 0 -5 11 -18 25 -13 14 -26 25
-28 25 -3 0 5 -11 18 -25z"/>
<path d="M2961 7090 c18 -25 34 -47 36 -49 2 -2 3 0 3 5 0 5 -16 27 -36 49
l-36 40 33 -45z"/>
<path d="M3040 7086 c0 -2 8 -10 18 -17 15 -13 16 -12 3 4 -13 16 -21 21 -21
13z"/>
<path d="M3094 7018 c13 -18 26 -40 28 -48 2 -8 8 -18 13 -22 6 -5 5 -8 -2 -8
-7 0 -13 -4 -13 -9 0 -5 10 -7 22 -3 13 3 19 1 15 -6 -4 -5 -4 -12 1 -14 4 -1
21 -25 36 -52 23 -40 25 -48 11 -42 -15 5 -16 4 -5 -9 10 -13 15 -13 21 -3 5
8 -6 38 -28 78 -36 65 -109 170 -119 170 -3 0 6 -15 20 -32z"/>
<path d="M3050 6951 c0 -6 4 -13 10 -16 6 -3 7 1 4 9 -7 18 -14 21 -14 7z"/>
<path d="M3144 6889 c-12 -20 -14 -40 -3 -33 5 3 7 10 4 15 -4 5 -2 9 3 9 12
0 24 -29 16 -41 -3 -5 0 -9 5 -9 15 0 13 20 -3 49 -10 19 -15 21 -22 10z"/>
<path d="M3128 6811 c20 -38 38 -68 40 -66 5 5 -56 123 -68 130 -5 3 7 -25 28
-64z"/>
<path d="M3230 6797 c0 -13 53 -138 56 -134 2 2 -8 33 -22 68 -25 62 -34 79
-34 66z"/>
<path d="M3181 6695 c1 -19 18 -51 18 -35 0 8 -4 22 -9 30 -5 8 -9 11 -9 5z"/>
<path d="M3291 6634 c0 -11 3 -14 6 -6 3 7 2 16 -1 19 -3 4 -6 -2 -5 -13z"/>
<path d="M3206 6620 c4 -14 13 -41 20 -60 l14 -35 -6 35 c-4 19 -13 46 -21 60
l-14 25 7 -25z"/>
<path d="M3315 6540 c3 -25 10 -65 15 -90 5 -25 14 -67 19 -95 9 -48 10 -48 4
15 -2 36 -13 99 -24 140 -14 54 -18 62 -14 30z"/>
<path d="M3286 6535 c4 -8 8 -15 10 -15 2 0 4 7 4 15 0 8 -4 15 -10 15 -5 0
-7 -7 -4 -15z"/>
<path d="M3241 6510 c0 -8 4 -24 9 -35 5 -13 9 -14 9 -5 0 8 -4 24 -9 35 -5
13 -9 14 -9 5z"/>
<path d="M3262 6430 c0 -14 2 -19 5 -12 2 6 2 18 0 25 -3 6 -5 1 -5 -13z"/>
<path d="M3270 6381 c0 -6 5 -13 12 -17 6 -4 8 -3 4 4 -3 5 0 13 6 15 8 3 6 6
-4 6 -10 1 -18 -3 -18 -8z"/>
<path d="M3287 6290 c3 -36 7 -67 9 -69 8 -8 2 84 -6 109 -6 16 -7 1 -3 -40z"/>
<path d="M3359 6243 c-1 -10 -1 -49 0 -88 1 -55 -3 -73 -16 -82 -15 -12 -15
-13 0 -13 11 0 17 -11 20 -42 2 -24 4 21 5 100 1 78 0 142 -3 142 -3 0 -6 -8
-6 -17z"/>
<path d="M3304 6111 c3 -58 9 -107 12 -110 3 -3 3 41 0 98 -3 57 -8 106 -12
110 -4 3 -4 -41 0 -98z"/>
<path d="M3350 5948 c-2 -44 -13 -138 -21 -168 -5 -19 -9 -44 -8 -55 0 -11 7
5 14 34 15 63 29 201 21 201 -3 0 -6 -6 -6 -12z"/>
<path d="M3308 5896 c-3 -14 -1 -31 3 -38 6 -8 9 1 9 25 0 42 -6 48 -12 13z"/>
<path d="M3303 5775 c0 -33 2 -45 4 -27 2 18 2 45 0 60 -2 15 -4 0 -4 -33z"/>
<path d="M3288 5637 c-2 -21 1 -41 6 -44 6 -4 8 -3 4 2 -4 4 -4 15 1 24 5 9 5
25 1 36 -6 16 -8 12 -12 -18z"/>
<path d="M3281 5564 c0 -11 3 -14 6 -6 3 7 2 16 -1 19 -3 4 -6 -2 -5 -13z"/>
<path d="M2935 6779 c-10 -15 3 -25 16 -12 7 7 7 13 1 17 -6 3 -14 1 -17 -5z"/>
<path d="M2926 6734 c-6 -15 -4 -15 11 -3 10 7 20 15 22 16 2 2 -3 3 -11 3 -9
0 -19 -7 -22 -16z"/>
<path d="M2942 6608 c-5 -7 -13 -24 -17 -36 -15 -51 -82 -148 -144 -210 -115
-115 -312 -224 -476 -263 -133 -31 -306 -33 -431 -4 l-31 7 -26 -79 c-40 -122
-55 -190 -67 -303 -26 -234 19 -539 101 -683 5 -10 15 -30 20 -45 8 -22 8 -25
-2 -14 -7 6 -17 12 -22 12 -5 0 -1 -7 7 -16 9 -8 20 -13 26 -9 5 3 21 -18 36
-47 14 -29 46 -78 70 -109 24 -31 41 -59 37 -62 -3 -4 3 -10 13 -14 10 -3 31
-16 46 -27 15 -11 30 -17 33 -14 3 2 -10 16 -29 29 -54 38 -110 114 -176 234
-120 222 -156 388 -147 675 6 176 10 199 59 358 25 83 35 102 47 96 79 -32
325 -30 455 5 264 70 510 255 604 453 15 32 29 58 32 58 8 0 84 -227 110 -325
38 -149 53 -303 47 -500 -7 -214 -30 -355 -88 -529 -45 -134 -85 -216 -165
-338 -59 -90 -37 -77 31 17 52 73 95 149 100 176 10 49 17 62 27 48 7 -10 7
-7 3 9 -4 13 -2 28 3 35 13 15 79 279 87 344 3 26 10 113 14 193 16 271 -21
513 -119 785 -38 104 -47 118 -68 93z"/>
<path d="M1692 5870 c0 -14 2 -19 5 -12 2 6 2 18 0 25 -3 6 -5 1 -5 -13z"/>
<path d="M1672 5660 c0 -14 2 -19 5 -12 2 6 2 18 0 25 -3 6 -5 1 -5 -13z"/>
<path d="M1660 5580 c0 -11 5 -20 10 -20 6 0 10 9 10 20 0 11 -4 20 -10 20 -5
0 -10 -9 -10 -20z"/>
<path d="M1160 6630 c-6 -11 -8 -20 -6 -20 3 0 10 9 16 20 6 11 8 20 6 20 -3
0 -10 -9 -16 -20z"/>
<path d="M1209 6583 c-18 -27 -37 -51 -43 -55 -5 -3 -11 -17 -12 -30 -3 -21
-2 -22 9 -4 7 10 26 39 43 65 41 62 46 71 40 71 -3 0 -20 -21 -37 -47z"/>
<path d="M1090 6509 c-17 -34 -28 -59 -23 -56 4 3 17 23 28 44 11 21 22 40 25
43 7 7 11 30 5 30 -3 0 -19 -27 -35 -61z"/>
<path d="M1130 6449 c-7 -11 -10 -23 -7 -25 2 -2 9 7 15 21 14 30 7 33 -8 4z"/>
<path d="M1042 6415 c-17 -37 -14 -45 4 -12 9 16 14 31 11 33 -2 2 -9 -7 -15
-21z"/>
<path d="M1085 6353 c-8 -20 -13 -38 -10 -41 3 -3 5 -3 5 0 0 3 7 22 15 42 8
20 13 36 10 36 -2 0 -12 -16 -20 -37z"/>
<path d="M997 6311 c-4 -17 -3 -21 5 -13 5 5 8 16 6 23 -3 8 -7 3 -11 -10z"/>
<path d="M977 6261 c-4 -17 -3 -21 5 -13 5 5 8 16 6 23 -3 8 -7 3 -11 -10z"/>
<path d="M1030 6224 c-21 -48 -40 -119 -21 -79 23 51 50 125 45 125 -2 0 -14
-21 -24 -46z"/>
<path d="M942 6151 c-7 -21 -12 -45 -11 -52 0 -8 7 8 15 35 9 26 13 50 11 52
-2 2 -9 -13 -15 -35z"/>
<path d="M991 6104 c0 -11 3 -14 6 -6 3 7 2 16 -1 19 -3 4 -6 -2 -5 -13z"/>
<path d="M910 6004 c-7 -41 -11 -77 -8 -79 3 -3 11 28 17 70 7 41 16 73 21 70
5 -3 11 -2 14 3 2 4 -3 8 -13 9 -15 1 -21 -12 -31 -73z"/>
<path d="M975 6050 c-4 -17 -5 -34 -2 -36 2 -3 7 10 11 27 8 42 0 50 -9 9z"/>
<path d="M956 5975 c-3 -8 -1 -15 4 -15 6 0 10 7 10 15 0 8 -2 15 -4 15 -2 0
-6 -7 -10 -15z"/>
<path d="M945 5891 c-5 -35 -11 -49 -18 -44 -7 4 -6 0 1 -10 9 -10 11 -27 7
-47 -4 -17 -2 -30 3 -30 8 0 25 170 17 178 -2 2 -6 -20 -10 -47z"/>
<path d="M931 5734 c0 -11 3 -14 6 -6 3 7 2 16 -1 19 -3 4 -6 -2 -5 -13z"/>
<path d="M940 5592 l5 -67 3 59 c2 32 -1 63 -5 67 -4 4 -6 -22 -3 -59z"/>
<path d="M912 5610 c0 -19 2 -27 5 -17 2 9 2 25 0 35 -3 9 -5 1 -5 -18z"/>
<path d="M922 5540 c0 -14 2 -19 5 -12 2 6 2 18 0 25 -3 6 -5 1 -5 -13z"/>
<path d="M932 5480 c0 -14 2 -19 5 -12 2 6 2 18 0 25 -3 6 -5 1 -5 -13z"/>
<path d="M951 5394 c0 -11 3 -14 6 -6 3 7 2 16 -1 19 -3 4 -6 -2 -5 -13z"/>
<path d="M975 5329 c-4 -6 -5 -12 -2 -15 2 -3 7 2 10 11 7 17 1 20 -8 4z"/>
<path d="M1006 5230 c7 -28 12 -35 18 -29 2 2 -2 15 -10 29 l-15 25 7 -25z"/>
<path d="M1056 5105 c4 -8 11 -15 16 -15 6 0 5 6 -2 15 -7 8 -14 15 -16 15 -2
0 -1 -7 2 -15z"/>
<path d="M1082 5060 c14 -22 24 -19 15 5 -4 8 -11 15 -17 15 -6 0 -6 -7 2 -20z"/>
<path d="M1106 5017 c3 -10 9 -15 12 -12 3 3 0 11 -7 18 -10 9 -11 8 -5 -6z"/>
<path d="M1170 4911 c10 -21 30 -37 30 -26 0 14 -21 45 -31 45 -6 0 -6 -7 1
-19z"/>
<path d="M1230 4836 c0 -2 7 -7 16 -10 8 -3 12 -2 9 4 -6 10 -25 14 -25 6z"/>
<path d="M1286 4778 c3 -7 22 -26 42 -42 l37 -30 -40 42 c-42 45 -48 49 -39
30z"/>
<path d="M1390 4686 c0 -2 8 -10 18 -17 15 -13 16 -12 3 4 -13 16 -21 21 -21
13z"/>
<path d="M1571 6124 c0 -11 3 -14 6 -6 3 7 2 16 -1 19 -3 4 -6 -2 -5 -13z"/>
<path d="M1557 6073 c-4 -18 -4 -48 -1 -65 4 -25 3 -29 -5 -18 -8 12 -11 5
-11 -30 0 -25 -2 -63 -5 -85 -4 -39 -4 -39 6 5 5 25 16 72 25 105 10 40 12 70
6 90 l-8 30 -7 -32z m10 -45 c-3 -7 -5 -2 -5 12 0 14 2 19 5 13 2 -7 2 -19 0
-25z"/>
<path d="M3642 7366 c18 -27 45 -67 61 -88 15 -22 24 -44 21 -50 -4 -6 -3 -8
3 -5 6 4 23 -16 38 -44 17 -32 24 -54 17 -58 -10 -6 10 -71 23 -71 3 0 1 9 -5
21 -6 11 -9 28 -7 37 6 27 74 -128 128 -293 44 -134 66 -223 97 -390 9 -48 10
-48 11 -13 3 115 -121 530 -208 694 -60 112 -129 216 -177 269 l-36 40 34 -49z"/>
<path d="M8450 7406 c0 -2 8 -10 18 -17 15 -13 16 -12 3 4 -13 16 -21 21 -21
13z"/>
<path d="M11285 7085 c-170 -35 -273 -77 -393 -162 -55 -39 -141 -129 -171
-180 -10 -17 -12 -17 -22 2 -29 50 -157 163 -220 193 -289 138 -651 65 -766
-155 -92 -176 -59 -361 91 -501 86 -80 152 -107 266 -107 71 0 94 4 140 26 74
35 117 81 136 146 27 94 -9 188 -91 235 -33 19 -53 23 -117 21 -71 -2 -77 -1
-92 22 -20 30 -10 55 31 82 37 24 148 20 208 -8 67 -32 131 -93 162 -157 38
-77 40 -200 5 -277 -42 -91 -120 -151 -242 -184 -93 -26 -175 -27 -273 -2
-100 26 -143 49 -216 117 -87 80 -128 167 -142 299 -10 93 -7 209 7 252 4 15
4 15 -4 3 -20 -29 -52 -179 -52 -239 0 -93 15 -80 18 17 5 111 12 120 12 15 0
-229 147 -421 366 -477 131 -34 314 -12 404 48 23 15 45 24 51 21 5 -4 8 -3 7
2 -2 4 2 9 7 11 17 5 23 -74 24 -283 1 -273 -30 -525 -110 -895 -23 -105 -43
-227 -46 -282 -6 -91 -4 -100 21 -152 54 -111 212 -221 413 -288 181 -61 305
-70 424 -32 58 18 83 45 83 87 -1 18 -26 83 -57 147 -46 93 -60 134 -73 215
-16 94 -16 117 2 415 24 415 24 872 0 1069 -9 79 -17 188 -18 241 0 89 2 102
28 151 33 60 82 99 163 130 47 18 70 20 141 16 122 -8 212 -48 290 -130 139
-145 199 -589 140 -1028 -13 -96 -63 -343 -114 -569 -48 -206 -64 -351 -47
-412 30 -105 127 -200 286 -279 137 -68 231 -91 375 -92 129 -2 168 11 195 63
28 53 19 101 -35 203 -74 139 -91 217 -91 412 0 88 5 216 11 285 6 69 15 184
20 255 6 72 17 213 26 315 18 228 21 502 4 634 -13 112 -42 206 -95 319 -87
182 -304 344 -545 407 -110 29 -414 38 -525 15z m582 -639 c81 -125 119 -325
116 -616 -1 -218 -20 -373 -74 -640 -22 -107 -47 -229 -56 -270 -19 -97 -22
-271 -5 -329 32 -105 188 -210 372 -251 52 -11 116 -27 142 -35 26 -7 57 -11
70 -9 22 5 22 5 3 -7 -13 -8 -56 -13 -120 -12 -185 0 -361 64 -476 171 -78 72
-94 116 -93 252 1 90 7 132 48 295 90 361 126 606 126 855 0 240 -41 494 -102
627 -12 27 -24 53 -26 58 -5 16 47 -47 75 -89z m-1343 -306 c67 -324 58 -685
-30 -1141 -14 -74 -28 -179 -31 -234 -5 -89 -3 -105 15 -140 65 -127 317 -262
547 -294 165 -23 112 -47 -84 -38 -125 6 -218 30 -335 88 -123 61 -230 160
-242 225 -12 64 3 202 45 414 64 319 82 472 88 745 3 172 1 271 -9 350 -8 61
-12 130 -9 155 4 44 4 44 13 15 5 -16 19 -82 32 -145z"/>
<path d="M11876 6365 c4 -16 11 -39 15 -50 7 -15 8 -12 5 12 -2 17 -9 39 -15
50 -9 15 -10 13 -5 -12z"/>
<path d="M11931 6204 c0 -11 3 -14 6 -6 3 7 2 16 -1 19 -3 4 -6 -2 -5 -13z"/>
<path d="M11942 6150 c0 -14 2 -19 5 -12 2 6 2 18 0 25 -3 6 -5 1 -5 -13z"/>
<path d="M11953 6070 c0 -25 2 -35 4 -22 2 12 2 32 0 45 -2 12 -4 2 -4 -23z"/>
<path d="M11933 5990 c0 -47 2 -66 4 -42 2 23 2 61 0 85 -2 23 -4 4 -4 -43z"/>
<path d="M11964 5860 c0 -91 2 -128 3 -82 2 45 2 119 0 165 -1 45 -3 8 -3 -83z"/>
<path d="M11933 5680 c0 -25 2 -35 4 -22 2 12 2 32 0 45 -2 12 -4 2 -4 -23z"/>
<path d="M11953 5625 c0 -33 2 -45 4 -27 2 18 2 45 0 60 -2 15 -4 0 -4 -33z"/>
<path d="M11921 5594 c0 -11 3 -14 6 -6 3 7 2 16 -1 19 -3 4 -6 -2 -5 -13z"/>
<path d="M11922 5550 c0 -14 2 -19 5 -12 2 6 2 18 0 25 -3 6 -5 1 -5 -13z"/>
<path d="M11940 5513 c-3 -23 -2 -39 3 -34 5 5 7 24 5 42 -3 33 -4 33 -8 -8z"/>
<path d="M11914 5495 c-3 -8 -4 -20 -2 -27 3 -7 7 -1 10 15 6 29 1 36 -8 12z"/>
<path d="M11932 5440 c0 -14 2 -19 5 -12 2 6 2 18 0 25 -3 6 -5 1 -5 -13z"/>
<path d="M11902 5415 c0 -16 2 -22 5 -12 2 9 2 23 0 30 -3 6 -5 -1 -5 -18z"/>
<path d="M11918 5377 c-3 -19 -2 -25 4 -19 6 6 8 18 6 28 -3 14 -5 12 -10 -9z"/>
<path d="M11892 5360 c0 -14 2 -19 5 -12 2 6 2 18 0 25 -3 6 -5 1 -5 -13z"/>
<path d="M11882 5310 c0 -14 2 -19 5 -12 2 6 2 18 0 25 -3 6 -5 1 -5 -13z"/>
<path d="M11871 5264 c0 -11 3 -14 6 -6 3 7 2 16 -1 19 -3 4 -6 -2 -5 -13z"/>
<path d="M11901 5264 c0 -11 3 -14 6 -6 3 7 2 16 -1 19 -3 4 -6 -2 -5 -13z"/>
<path d="M11891 5224 c0 -11 3 -14 6 -6 3 7 2 16 -1 19 -3 4 -6 -2 -5 -13z"/>
<path d="M11882 5170 c0 -14 2 -19 5 -12 2 6 2 18 0 25 -3 6 -5 1 -5 -13z"/>
<path d="M11851 5164 c0 -11 3 -14 6 -6 3 7 2 16 -1 19 -3 4 -6 -2 -5 -13z"/>
<path d="M11871 5114 c0 -11 3 -14 6 -6 3 7 2 16 -1 19 -3 4 -6 -2 -5 -13z"/>
<path d="M11861 5074 c0 -11 3 -14 6 -6 3 7 2 16 -1 19 -3 4 -6 -2 -5 -13z"/>
<path d="M11851 5024 c0 -11 3 -14 6 -6 3 7 2 16 -1 19 -3 4 -6 -2 -5 -13z"/>
<path d="M11836 4964 c-4 -20 -5 -38 -3 -40 3 -3 8 11 11 32 4 20 5 38 3 40
-3 3 -8 -11 -11 -32z"/>
<path d="M11791 4914 c0 -11 3 -14 6 -6 3 7 2 16 -1 19 -3 4 -6 -2 -5 -13z"/>
<path d="M11812 4798 c-1 -14 -5 -35 -8 -45 -5 -14 -4 -15 5 -7 7 7 11 26 8
45 -3 28 -4 29 -5 7z"/>
<path d="M11762 4750 c0 -19 2 -27 5 -17 2 9 2 25 0 35 -3 9 -5 1 -5 -18z"/>
<path d="M11801 4714 c0 -11 3 -14 6 -6 3 7 2 16 -1 19 -3 4 -6 -2 -5 -13z"/>
<path d="M11812 4655 c0 -16 2 -22 5 -12 2 9 2 23 0 30 -3 6 -5 -1 -5 -18z"/>
<path d="M11761 4625 c-1 -28 42 -135 54 -135 3 0 -1 14 -10 30 -9 17 -12 30
-8 30 5 0 2 4 -5 8 -7 5 -16 28 -21 53 -7 36 -9 38 -10 14z"/>
<path d="M11821 4604 c0 -11 3 -14 6 -6 3 7 2 16 -1 19 -3 4 -6 -2 -5 -13z"/>
<path d="M11833 4561 c1 -11 7 -23 14 -26 11 -4 11 0 2 18 -16 31 -18 32 -16
8z"/>
<path d="M11905 4470 c21 -22 41 -40 44 -40 3 0 -13 18 -34 40 -21 22 -41 40
-44 40 -3 0 13 -18 34 -40z"/>
<path d="M11855 4450 c10 -11 20 -20 23 -20 3 0 -3 9 -13 20 -10 11 -20 20
-23 20 -3 0 3 -9 13 -20z"/>
<path d="M11894 4421 c7 -11 46 -35 46 -28 0 3 -12 12 -26 22 -15 9 -23 12
-20 6z"/>
<path d="M11977 4369 c7 -7 15 -10 18 -7 3 3 -2 9 -12 12 -14 6 -15 5 -6 -5z"/>
<path d="M12068 4333 c7 -3 16 -2 19 1 4 3 -2 6 -13 5 -11 0 -14 -3 -6 -6z"/>
<path d="M12198 4303 c7 -3 16 -2 19 1 4 3 -2 6 -13 5 -11 0 -14 -3 -6 -6z"/>
<path d="M12258 4293 c7 -3 16 -2 19 1 4 3 -2 6 -13 5 -11 0 -14 -3 -6 -6z"/>
<path d="M10492 6190 c0 -14 2 -19 5 -12 2 6 2 18 0 25 -3 6 -5 1 -5 -13z"/>
<path d="M10506 6105 c3 -33 10 -75 16 -94 5 -18 7 -52 4 -75 -4 -29 -3 -37 4
-26 14 22 12 63 -10 165 -17 82 -19 84 -14 30z"/>
<path d="M10512 5970 c0 -14 2 -19 5 -12 2 6 2 18 0 25 -3 6 -5 1 -5 -13z"/>
<path d="M10523 5855 c0 -22 2 -30 4 -17 2 12 2 30 0 40 -3 9 -5 -1 -4 -23z"/>
<path d="M10542 5865 c0 -16 2 -22 5 -12 2 9 2 23 0 30 -3 6 -5 -1 -5 -18z"/>
<path d="M10543 5765 c0 -38 2 -53 4 -32 2 20 2 52 0 70 -2 17 -4 1 -4 -38z"/>
<path d="M10523 5765 c0 -22 2 -30 4 -17 2 12 2 30 0 40 -3 9 -5 -1 -4 -23z"/>
<path d="M10513 5645 c0 -44 2 -61 4 -37 2 23 2 59 0 80 -2 20 -4 1 -4 -43z"/>
<path d="M10538 5535 c-1 -36 0 -65 5 -65 4 0 7 29 7 65 0 36 -2 65 -4 65 -2
0 -6 -29 -8 -65z"/>
<path d="M10503 5485 c0 -22 2 -30 4 -17 2 12 2 30 0 40 -3 9 -5 -1 -4 -23z"/>
<path d="M10533 5415 c0 -22 2 -30 4 -17 2 12 2 30 0 40 -3 9 -5 -1 -4 -23z"/>
<path d="M10486 5371 c-4 -35 -5 -65 -2 -68 6 -7 19 103 14 119 -3 7 -8 -16
-12 -51z"/>
<path d="M10522 5305 c0 -16 2 -22 5 -12 2 9 2 23 0 30 -3 6 -5 -1 -5 -18z"/>
<path d="M10471 5264 c0 -11 3 -14 6 -6 3 7 2 16 -1 19 -3 4 -6 -2 -5 -13z"/>
<path d="M10512 5240 c0 -19 2 -27 5 -17 2 9 2 25 0 35 -3 9 -5 1 -5 -18z"/>
<path d="M10502 5170 c0 -14 2 -19 5 -12 2 6 2 18 0 25 -3 6 -5 1 -5 -13z"/>
<path d="M10451 5144 c0 -11 3 -14 6 -6 3 7 2 16 -1 19 -3 4 -6 -2 -5 -13z"/>
<path d="M10492 5110 c0 -14 2 -19 5 -12 2 6 2 18 0 25 -3 6 -5 1 -5 -13z"/>
<path d="M10442 5090 c0 -14 2 -19 5 -12 2 6 2 18 0 25 -3 6 -5 1 -5 -13z"/>
<path d="M10482 5055 c0 -16 2 -22 5 -12 2 9 2 23 0 30 -3 6 -5 -1 -5 -18z"/>
<path d="M10421 4994 c0 -11 3 -14 6 -6 3 7 2 16 -1 19 -3 4 -6 -2 -5 -13z"/>
<path d="M10412 4950 c0 -14 2 -19 5 -12 2 6 2 18 0 25 -3 6 -5 1 -5 -13z"/>
<path d="M10452 4890 c0 -19 2 -27 5 -17 2 9 2 25 0 35 -3 9 -5 1 -5 -18z"/>
<path d="M10392 4845 c0 -16 2 -22 5 -12 2 9 2 23 0 30 -3 6 -5 -1 -5 -18z"/>
<path d="M10442 4820 c0 -19 2 -27 5 -17 2 9 2 25 0 35 -3 9 -5 1 -5 -18z"/>
<path d="M10383 4765 c0 -22 2 -30 4 -17 2 12 2 30 0 40 -3 9 -5 -1 -4 -23z"/>
<path d="M10373 4675 c0 -22 2 -30 4 -17 2 12 2 30 0 40 -3 9 -5 -1 -4 -23z"/>
<path d="M10442 4660 c0 -14 2 -19 5 -12 2 6 2 18 0 25 -3 6 -5 1 -5 -13z"/>
<path d="M10410 4547 c0 -2 15 -16 33 -33 l32 -29 -29 33 c-28 30 -36 37 -36
29z"/>
<path d="M10530 4526 c0 -2 8 -10 18 -17 15 -13 16 -12 3 4 -13 16 -21 21 -21
13z"/>
<path d="M10550 4431 c14 -11 30 -21 35 -21 11 0 -7 14 -40 31 -13 7 -12 3 5
-10z"/>
<path d="M10755 4340 c27 -12 43 -12 25 0 -8 5 -22 9 -30 9 -10 0 -8 -3 5 -9z"/>
<path d="M10965 4310 c3 -5 29 -10 57 -10 64 0 60 5 -10 14 -37 5 -52 4 -47
-4z"/>
<path d="M7440 7063 c-205 -31 -215 -34 -348 -98 -74 -36 -162 -85 -197 -109
-62 -45 -185 -170 -185 -189 0 -5 -19 19 -42 54 -23 35 -67 89 -98 119 -253
252 -713 242 -888 -19 -51 -77 -65 -130 -61 -233 3 -70 9 -94 37 -150 50 -102
118 -170 219 -220 102 -51 177 -60 268 -33 128 37 207 178 164 292 -26 69
-108 122 -203 130 -79 7 -98 17 -94 50 8 70 134 91 237 39 65 -33 132 -100
161 -162 17 -34 23 -65 23 -122 1 -82 -12 -135 -49 -193 -21 -34 -22 -38 -8
-95 52 -212 69 -578 55 -1121 -12 -442 -21 -601 -51 -906 -18 -180 -36 -306
-115 -842 -41 -276 -33 -372 38 -478 103 -153 421 -288 687 -290 160 -2 190
15 190 107 0 36 -9 54 -60 122 -81 106 -91 143 -97 346 -6 177 2 289 43 633
13 116 33 282 44 370 10 88 24 210 31 272 l11 112 39 -19 c20 -11 77 -31 126
-46 122 -36 304 -38 443 -4 345 82 648 374 791 761 69 188 109 410 109 603 0
296 -52 560 -147 750 -19 37 -32 70 -29 73 6 6 116 -216 116 -234 0 -7 4 -13
9 -13 14 0 57 -125 80 -233 24 -108 27 -167 9 -167 -6 0 -4 -7 6 -18 13 -15
16 -39 15 -120 -1 -97 -2 -102 -22 -102 -17 0 -19 -2 -7 -9 8 -6 17 -8 20 -6
4 2 7 -2 7 -10 0 -8 -5 -11 -11 -8 -6 4 -5 -1 3 -10 15 -19 7 -52 -10 -41 -8
4 -9 3 -5 -5 4 -6 12 -8 18 -5 7 5 8 2 2 -7 -5 -8 -7 -22 -6 -32 6 -31 -17
-187 -43 -301 -76 -334 -276 -662 -515 -843 -103 -78 -241 -137 -402 -173
-107 -24 -347 -27 -448 -6 -36 8 -69 11 -73 7 -8 -8 -30 -166 -47 -336 -6 -55
-17 -158 -25 -228 -8 -71 -15 -139 -15 -150 0 -14 -3 -17 -8 -10 -4 6 -8 -21
-8 -60 -1 -40 -5 -178 -9 -307 -9 -273 -3 -319 53 -407 21 -32 36 -66 34 -75
-2 -10 2 -18 8 -18 7 0 10 7 6 18 -5 14 -3 13 9 -3 9 -11 13 -25 11 -32 -3 -7
0 -12 7 -10 7 1 11 -6 11 -15 -1 -10 2 -15 7 -13 12 8 22 -59 15 -98 -14 -74
-112 -127 -246 -135 -342 -19 -778 185 -860 404 -48 130 -48 226 1 494 11 58
42 263 70 455 45 313 67 504 99 860 6 61 13 306 16 545 6 434 -2 627 -36 844
-12 79 -20 85 -71 57 -22 -13 -49 -21 -60 -18 -10 3 -17 1 -13 -4 8 -13 -156
-11 -235 2 -90 16 -197 62 -253 110 -27 22 -48 36 -48 31 0 -20 112 -95 184
-122 88 -34 234 -55 320 -46 35 3 78 16 104 31 25 14 46 24 47 23 5 -7 26
-164 37 -283 17 -166 16 -838 -1 -1075 -25 -371 -92 -922 -157 -1300 -33 -195
-54 -361 -54 -436 0 -75 27 -167 68 -231 124 -193 485 -355 792 -356 161 -1
257 39 300 123 36 70 23 113 -76 249 -30 40 -59 92 -66 115 -22 74 -15 418 15
691 15 132 34 305 43 385 29 267 38 325 54 321 8 -2 31 -7 50 -12 63 -16 262
-22 357 -10 177 22 363 92 484 182 70 52 200 180 253 249 138 179 238 398 290
633 75 331 69 711 -13 955 -43 128 -172 369 -191 357 -4 -2 -24 21 -45 53 -50
75 -176 205 -245 252 -129 88 -267 143 -427 170 -104 18 -254 24 -323 13z
m294 -369 c278 -72 438 -326 471 -749 8 -102 -14 -254 -55 -378 -70 -210 -206
-374 -340 -412 -23 -6 -22 -5 5 13 76 48 175 187 221 308 52 139 68 228 67
384 0 130 -3 158 -31 265 -53 201 -159 377 -277 457 -94 63 -169 82 -327 83
-75 0 -135 1 -133 3 2 2 36 12 76 22 95 23 241 25 323 4z m-204 -124 c143 -23
283 -127 357 -266 153 -288 128 -728 -55 -976 -94 -128 -203 -190 -357 -204
-124 -11 -255 34 -346 118 -41 37 -36 10 -59 298 -14 170 -53 425 -91 600 -16
74 -29 146 -29 159 0 17 24 47 78 101 147 145 310 200 502 170z m-986 -1230
c40 -316 45 -859 11 -1220 -28 -295 -81 -745 -105 -895 -5 -33 -10 -100 -10
-150 0 -78 4 -98 28 -150 37 -77 84 -118 197 -171 91 -42 322 -128 404 -149
25 -7 47 -17 49 -23 6 -20 -50 -25 -153 -13 -278 32 -514 159 -592 320 -26 52
-28 64 -27 181 0 84 11 196 32 340 41 281 57 419 82 680 34 367 40 490 47 970
4 269 10 450 14 430 5 -19 15 -87 23 -150z m673 -709 c93 -58 276 -101 422
-101 87 0 283 38 355 69 84 37 60 17 -47 -37 -131 -68 -228 -92 -387 -99 -145
-6 -236 9 -337 56 l-63 30 0 55 c0 31 2 56 4 56 3 0 26 -13 53 -29z"/>
<path d="M7508 6683 c18 -2 45 -2 60 0 15 2 0 4 -33 4 -33 0 -45 -2 -27 -4z"/>
<path d="M7668 6683 c6 -2 18 -2 25 0 6 3 1 5 -13 5 -14 0 -19 -2 -12 -5z"/>
<path d="M7670 6660 c8 -5 22 -9 30 -9 10 0 8 3 -5 9 -27 12 -43 12 -25 0z"/>
<path d="M7850 6626 c0 -2 7 -7 16 -10 8 -3 12 -2 9 4 -6 10 -25 14 -25 6z"/>
<path d="M7902 6594 c10 -10 20 -16 22 -13 3 3 -5 11 -17 18 -21 13 -21 12 -5
-5z"/>
<path d="M7983 6522 c15 -16 25 -30 23 -33 -3 -3 4 -11 16 -18 16 -10 19 -10
12 1 -18 31 -60 78 -68 78 -6 0 2 -13 17 -28z"/>
<path d="M7955 6433 c15 -24 30 -43 32 -43 7 0 -31 61 -46 73 -8 7 -2 -7 14
-30z"/>
<path d="M8056 6417 c3 -10 9 -15 12 -12 3 3 0 11 -7 18 -10 9 -11 8 -5 -6z"/>
<path d="M8021 6330 c14 -31 19 -36 19 -24 0 6 -7 19 -16 30 -14 18 -14 18 -3
-6z"/>
<path d="M8121 6270 c0 -8 4 -24 9 -35 5 -13 9 -14 9 -5 0 8 -4 24 -9 35 -5
13 -9 14 -9 5z"/>
<path d="M8152 6165 c0 -11 4 -31 8 -45 6 -20 8 -21 8 -5 0 11 -4 31 -8 45 -6
20 -8 21 -8 5z"/>
<path d="M8086 6135 c14 -58 24 -83 18 -40 -3 22 -10 47 -15 55 -6 10 -7 5 -3
-15z"/>
<path d="M8151 6064 c0 -11 3 -14 6 -6 3 7 2 16 -1 19 -3 4 -6 -2 -5 -13z"/>
<path d="M8172 6040 c0 -19 3 -60 8 -90 6 -48 7 -50 8 -15 0 22 -3 63 -8 90
-6 40 -7 43 -8 15z"/>
<path d="M8116 6000 c2 -19 4 -86 4 -149 0 -63 2 -112 5 -109 8 8 11 257 3
252 -4 -2 -9 6 -11 18 -2 13 -3 7 -1 -12z"/>
<path d="M8146 5953 c-6 -14 -5 -15 5 -6 7 7 10 15 7 18 -3 3 -9 -2 -12 -12z"/>
<path d="M8183 5845 c0 -27 2 -38 4 -22 2 15 2 37 0 50 -2 12 -4 0 -4 -28z"/>
<path d="M8172 5755 c0 -16 2 -22 5 -12 2 9 2 23 0 30 -3 6 -5 -1 -5 -18z"/>
<path d="M8162 5700 c0 -14 2 -19 5 -12 2 6 2 18 0 25 -3 6 -5 1 -5 -13z"/>
<path d="M8112 5680 c0 -14 2 -19 5 -12 2 6 2 18 0 25 -3 6 -5 1 -5 -13z"/>
<path d="M8151 5654 c0 -11 3 -14 6 -6 3 7 2 16 -1 19 -3 4 -6 -2 -5 -13z"/>
<path d="M8089 5590 c-9 -32 -12 -57 -8 -55 8 6 33 104 27 110 -2 2 -11 -23
-19 -55z"/>
<path d="M8141 5614 c0 -11 3 -14 6 -6 3 7 2 16 -1 19 -3 4 -6 -2 -5 -13z"/>
<path d="M8055 5483 c-8 -20 -13 -38 -10 -41 3 -3 5 -3 5 0 0 3 7 22 15 42 8
20 13 36 10 36 -2 0 -12 -16 -20 -37z"/>
<path d="M8080 5465 c-7 -9 -8 -15 -2 -15 5 0 12 7 16 15 3 8 4 15 2 15 -2 0
-9 -7 -16 -15z"/>
<path d="M8050 5400 c-11 -22 -18 -40 -15 -40 2 0 14 18 25 40 11 22 18 40 15
40 -2 0 -14 -18 -25 -40z"/>
<path d="M7977 5326 c-14 -21 -14 -24 -2 -22 9 1 21 8 28 16 10 10 9 11 -2 5
-11 -6 -13 -4 -8 8 9 24 2 21 -16 -7z"/>
<path d="M7932 5260 c-13 -17 -17 -27 -8 -24 11 4 41 54 33 54 -2 0 -13 -13
-25 -30z"/>
<path d="M7355 6435 c-111 -25 -199 -77 -277 -164 -43 -46 -44 -59 -24 -164
38 -198 49 -266 50 -313 1 -29 4 -50 9 -47 12 7 8 -62 -5 -77 -11 -12 -10 -12
3 -2 13 10 17 -3 29 -106 7 -64 16 -166 20 -227 l7 -110 1 105 c2 150 -38 477
-94 758 -17 86 -21 128 -14 141 19 36 126 125 184 152 118 56 229 62 341 19
87 -33 203 -150 249 -251 51 -110 70 -212 70 -359 -1 -144 -21 -243 -84 -404
-28 -74 -33 -94 -18 -75 24 32 81 203 104 314 13 61 15 110 11 210 -10 213
-52 328 -168 457 -72 80 -133 119 -224 143 -70 18 -90 18 -170 0z"/>
<path d="M7059 6413 c-13 -16 -12 -17 4 -4 9 7 17 15 17 17 0 8 -8 3 -21 -13z"/>
<path d="M7935 6081 c-3 -5 -1 -12 5 -16 5 -3 10 1 10 9 0 18 -6 21 -15 7z"/>
<path d="M7046 5992 c-3 -5 1 -15 8 -21 11 -10 14 -9 12 3 -3 21 -13 29 -20
18z"/>
<path d="M7060 5945 c0 -5 5 -17 10 -25 5 -8 10 -10 10 -5 0 6 -5 17 -10 25
-5 8 -10 11 -10 5z"/>
<path d="M7047 5875 c3 -22 7 -42 9 -44 8 -9 2 45 -6 64 -7 14 -8 8 -3 -20z"/>
<path d="M7081 5634 c0 -11 3 -14 6 -6 3 7 2 16 -1 19 -3 4 -6 -2 -5 -13z"/>
<path d="M7090 5505 c0 -9 6 -12 15 -9 8 4 15 7 15 9 0 2 -7 5 -15 9 -9 3 -15
0 -15 -9z"/>
<path d="M7100 5378 c0 -34 3 -58 7 -54 11 10 12 116 1 116 -4 0 -8 -28 -8
-62z"/>
<path d="M7131 5344 c0 -11 3 -14 6 -6 3 7 2 16 -1 19 -3 4 -6 -2 -5 -13z"/>
<path d="M7125 5276 c10 -14 19 -26 22 -26 7 0 -17 39 -28 46 -6 3 -3 -5 6
-20z"/>
<path d="M6521 5334 c0 -11 3 -14 6 -6 3 7 2 16 -1 19 -3 4 -6 -2 -5 -13z"/>
<path d="M6533 5245 c0 -27 2 -38 4 -22 2 15 2 37 0 50 -2 12 -4 0 -4 -28z"/>
<path d="M6530 5161 c0 -6 4 -13 10 -16 6 -3 7 1 4 9 -7 18 -14 21 -14 7z"/>
<path d="M6540 5089 c0 -5 -4 -7 -10 -4 -6 3 -10 -4 -10 -17 0 -17 3 -19 9 -9
7 11 10 10 14 -5 3 -12 5 -6 6 14 0 17 -1 32 -4 32 -3 0 -5 -5 -5 -11z"/>
<path d="M6524 4840 c0 -107 2 -151 3 -97 2 53 2 141 0 195 -1 53 -3 9 -3 -98z"/>
<path d="M6551 4784 c0 -11 3 -14 6 -6 3 7 2 16 -1 19 -3 4 -6 -2 -5 -13z"/>
<path d="M6559 4678 c-5 -15 -9 -61 -5 -58 6 7 16 60 10 60 -2 0 -4 -1 -5 -2z"/>
<path d="M6513 4545 c0 -38 2 -53 4 -32 2 20 2 52 0 70 -2 17 -4 1 -4 -38z"/>
<path d="M6553 4575 c0 -22 2 -30 4 -17 2 12 2 30 0 40 -3 9 -5 -1 -4 -23z"/>
<path d="M6553 4460 c0 -41 2 -58 4 -37 2 20 2 54 0 75 -2 20 -4 3 -4 -38z"/>
<path d="M6503 4375 c0 -33 2 -45 4 -27 2 18 2 45 0 60 -2 15 -4 0 -4 -33z"/>
<path d="M6542 4278 c-1 -31 -5 -65 -8 -75 -5 -14 -4 -15 5 -7 8 7 11 34 8 75
l-3 64 -2 -57z"/>
<path d="M6494 4266 c-3 -8 -4 -25 -2 -38 3 -17 5 -13 9 15 5 38 2 47 -7 23z"/>
<path d="M6533 4130 c0 -25 2 -35 4 -22 2 12 2 32 0 45 -2 12 -4 2 -4 -23z"/>
<path d="M6482 4130 c0 -19 2 -27 5 -17 2 9 2 25 0 35 -3 9 -5 1 -5 -18z"/>
<path d="M6471 4034 c0 -11 3 -14 6 -6 3 7 2 16 -1 19 -3 4 -6 -2 -5 -13z"/>
<path d="M6522 4025 c0 -16 2 -22 5 -12 2 9 2 23 0 30 -3 6 -5 -1 -5 -18z"/>
<path d="M6462 3945 c0 -16 2 -22 5 -12 2 9 2 23 0 30 -3 6 -5 -1 -5 -18z"/>
<path d="M6512 3915 c0 -16 2 -22 5 -12 2 9 2 23 0 30 -3 6 -5 -1 -5 -18z"/>
<path d="M6452 3830 c0 -19 2 -27 5 -17 2 9 2 25 0 35 -3 9 -5 1 -5 -18z"/>
<path d="M6502 3825 c0 -16 2 -22 5 -12 2 9 2 23 0 30 -3 6 -5 -1 -5 -18z"/>
<path d="M6442 3755 c0 -16 2 -22 5 -12 2 9 2 23 0 30 -3 6 -5 -1 -5 -18z"/>
<path d="M6434 3706 c-3 -8 -4 -29 -2 -48 3 -29 4 -27 8 15 5 48 3 58 -6 33z"/>
<path d="M6482 3640 c0 -14 2 -19 5 -12 2 6 2 18 0 25 -3 6 -5 1 -5 -13z"/>
<path d="M6422 3595 c0 -16 2 -22 5 -12 2 9 2 23 0 30 -3 6 -5 -1 -5 -18z"/>
<path d="M6412 3515 c0 -16 2 -22 5 -12 2 9 2 23 0 30 -3 6 -5 -1 -5 -18z"/>
<path d="M6462 3490 c0 -14 2 -19 5 -12 2 6 2 18 0 25 -3 6 -5 1 -5 -13z"/>
<path d="M6401 3424 c0 -11 3 -14 6 -6 3 7 2 16 -1 19 -3 4 -6 -2 -5 -13z"/>
<path d="M6452 3415 c0 -16 2 -22 5 -12 2 9 2 23 0 30 -3 6 -5 -1 -5 -18z"/>
<path d="M6390 3375 c0 -14 2 -25 4 -25 2 0 6 11 8 25 3 14 1 25 -3 25 -5 0
-9 -11 -9 -25z"/>
<path d="M6382 3310 c0 -14 2 -19 5 -12 2 6 2 18 0 25 -3 6 -5 1 -5 -13z"/>
<path d="M6431 3254 c0 -11 3 -14 6 -6 3 7 2 16 -1 19 -3 4 -6 -2 -5 -13z"/>
<path d="M6422 3175 c0 -16 2 -22 5 -12 2 9 2 23 0 30 -3 6 -5 -1 -5 -18z"/>
<path d="M6362 3140 c0 -14 2 -19 5 -12 2 6 2 18 0 25 -3 6 -5 1 -5 -13z"/>
<path d="M6412 3050 c0 -14 2 -19 5 -12 2 6 2 18 0 25 -3 6 -5 1 -5 -13z"/>
<path d="M6362 2985 c0 -16 2 -22 5 -12 2 9 2 23 0 30 -3 6 -5 -1 -5 -18z"/>
<path d="M6485 2850 c10 -11 20 -20 23 -20 3 0 -3 9 -13 20 -10 11 -20 20 -23
20 -3 0 3 -9 13 -20z"/>
<path d="M6485 2770 c10 -11 20 -20 23 -20 3 0 -3 9 -13 20 -10 11 -20 20 -23
20 -3 0 3 -9 13 -20z"/>
<path d="M6592 2764 c10 -10 20 -15 24 -12 3 4 -5 12 -18 18 -22 12 -22 12 -6
-6z"/>
<path d="M6660 2665 c14 -8 30 -14 35 -14 6 0 -1 6 -15 14 -14 8 -29 14 -35
14 -5 0 1 -6 15 -14z"/>
<path d="M6978 2583 c7 -3 16 -2 19 1 4 3 -2 6 -13 5 -11 0 -14 -3 -6 -6z"/>
<path d="M7200 4615 c0 -7 81 -47 86 -43 2 3 -17 14 -41 26 -25 12 -45 20 -45
17z"/>
<path d="M7195 4549 c8 -12 116 -50 129 -45 6 2 4 5 -4 5 -8 1 -41 12 -72 25
-32 13 -55 20 -53 15z"/>
<path d="M7408 4533 c7 -3 16 -2 19 1 4 3 -2 6 -13 5 -11 0 -14 -3 -6 -6z"/>
<path d="M7523 4513 c9 -2 25 -2 35 0 9 3 1 5 -18 5 -19 0 -27 -2 -17 -5z"/>
<path d="M8857 7059 c7 -7 15 -10 18 -7 3 3 -2 9 -12 12 -14 6 -15 5 -6 -5z"/>
<path d="M8947 7029 c4 -13 8 -18 11 -10 2 7 -1 18 -6 23 -8 8 -9 4 -5 -13z"/>
<path d="M13445 7035 c-237 -43 -428 -204 -511 -432 -26 -69 -29 -91 -29 -193
0 -94 4 -128 24 -188 31 -93 82 -177 151 -248 118 -120 237 -174 385 -174 185
0 333 87 403 238 23 49 27 70 27 152 0 114 -24 179 -87 236 -63 57 -120 77
-205 72 -82 -6 -103 3 -103 40 0 37 10 49 53 67 74 31 199 11 287 -45 87 -56
127 -117 154 -237 70 -311 -98 -567 -413 -629 -143 -28 -281 -3 -432 77 -188
100 -342 340 -357 553 -5 80 -20 83 -21 5 -1 -21 -16 -65 -36 -103 -19 -37
-30 -64 -24 -60 6 3 22 32 36 63 19 43 27 52 34 39 6 -11 -6 -37 -48 -99 -102
-152 -138 -249 -167 -450 -76 -513 111 -968 509 -1239 112 -76 270 -148 385
-176 106 -26 334 -38 449 -25 467 54 838 436 948 976 14 70 18 135 18 295 -1
183 -4 218 -28 331 -117 550 -459 979 -892 1118 -156 51 -356 65 -510 36z
m543 -462 c82 -39 204 -135 261 -205 98 -121 171 -295 212 -510 51 -264 -11
-661 -132 -853 -49 -78 -107 -143 -158 -177 l-46 -32 50 55 c231 248 283 802
116 1234 -81 211 -237 408 -386 488 l-70 38 50 -7 c28 -3 74 -17 103 -31z m81
-273 c55 -79 117 -206 152 -313 79 -243 91 -547 29 -782 -55 -211 -126 -329
-254 -419 -73 -51 -114 -70 -192 -91 -162 -42 -323 9 -445 143 -153 167 -188
484 -84 762 9 25 19 55 22 67 4 18 9 20 34 13 16 -5 87 -7 157 -4 188 6 193 7
182 14 -6 4 15 16 47 28 104 38 200 129 258 243 36 70 59 199 50 278 -5 36 -8
76 -8 88 1 13 -2 21 -6 18 -5 -2 -13 12 -19 33 l-12 37 25 -30 c14 -17 43 -55
64 -85z m-1264 -386 c-69 -160 -115 -425 -100 -574 11 -110 42 -238 90 -375
20 -55 -26 28 -63 115 -96 225 -117 535 -51 770 20 73 67 185 96 229 l16 24
23 -55 23 -55 -34 -79z"/>
<path d="M13961 6557 c2 -1 13 -9 24 -17 19 -14 19 -14 6 3 -7 9 -18 17 -24
17 -6 0 -8 -1 -6 -3z"/>
<path d="M14210 6376 c0 -2 8 -10 18 -17 15 -13 16 -12 3 4 -13 16 -21 21 -21
13z"/>
<path d="M14175 6340 c9 -16 18 -30 21 -30 2 0 -2 14 -11 30 -9 17 -18 30 -21
30 -2 0 2 -13 11 -30z"/>
<path d="M14240 6234 c0 -6 7 -19 16 -30 14 -18 14 -18 3 6 -14 31 -19 36 -19
24z"/>
<path d="M14361 6130 c0 -8 4 -22 9 -30 12 -18 12 -2 0 25 -6 13 -9 15 -9 5z"/>
<path d="M14310 6079 c0 -4 7 -22 15 -40 8 -19 14 -27 14 -19 0 14 -28 72 -29
59z"/>
<path d="M14401 6010 c0 -8 4 -24 9 -35 5 -13 9 -14 9 -5 0 8 -4 24 -9 35 -5
13 -9 14 -9 5z"/>
<path d="M14422 5935 c0 -11 4 -31 8 -45 6 -20 8 -21 8 -5 0 11 -4 31 -8 45
-6 20 -8 21 -8 5z"/>
<path d="M14368 5893 c5 -21 7 -23 10 -9 2 10 0 22 -6 28 -6 6 -7 0 -4 -19z"/>
<path d="M14442 5840 c0 -14 2 -19 5 -12 2 6 2 18 0 25 -3 6 -5 1 -5 -13z"/>
<path d="M14381 5834 c0 -11 3 -14 6 -6 3 7 2 16 -1 19 -3 4 -6 -2 -5 -13z"/>
<path d="M14453 5755 c0 -27 2 -38 4 -22 2 15 2 37 0 50 -2 12 -4 0 -4 -28z"/>
<path d="M14402 5660 c0 -14 2 -19 5 -12 2 6 2 18 0 25 -3 6 -5 1 -5 -13z"/>
<path d="M14451 5574 c0 -11 3 -14 6 -6 3 7 2 16 -1 19 -3 4 -6 -2 -5 -13z"/>
<path d="M14453 5515 c0 -22 2 -30 4 -17 2 12 2 30 0 40 -3 9 -5 -1 -4 -23z"/>
<path d="M14406 5446 c-4 -43 -5 -80 -2 -83 6 -6 19 120 14 143 -2 10 -7 -16
-12 -60z"/>
<path d="M14442 5440 c0 -19 2 -27 5 -17 2 9 2 25 0 35 -3 9 -5 1 -5 -18z"/>
<path d="M14431 5364 c0 -11 3 -14 6 -6 3 7 2 16 -1 19 -3 4 -6 -2 -5 -13z"/>
<path d="M14421 5324 c0 -11 3 -14 6 -6 3 7 2 16 -1 19 -3 4 -6 -2 -5 -13z"/>
<path d="M14024 6314 c3 -9 6 -23 7 -32 0 -11 2 -13 6 -4 4 10 8 10 21 0 9 -7
6 1 -7 20 -24 34 -37 42 -27 16z"/>
<path d="M14058 6114 c-5 -4 -8 -21 -8 -37 0 -46 -58 -207 -95 -263 -55 -85
-175 -170 -275 -197 -62 -16 -107 -20 -232 -21 l-88 -1 -20 -47 c-64 -149 -67
-404 -8 -568 27 -74 93 -179 132 -210 30 -25 30 -24 -5 18 -84 98 -133 225
-150 381 -13 127 -2 244 33 340 l23 64 80 3 c209 9 287 30 392 103 84 59 124
105 163 186 47 99 90 282 58 249z"/>
<path d="M14099 6071 c31 -59 80 -236 96 -341 29 -185 14 -428 -36 -609 -24
-90 -84 -209 -139 -275 -22 -26 -40 -50 -40 -53 0 -2 22 15 50 39 27 24 50 48
50 54 0 5 16 43 36 83 23 47 40 71 49 67 7 -2 15 4 18 15 4 17 3 18 -9 8 -19
-15 -18 1 1 66 45 148 63 447 36 605 -27 158 -98 380 -123 380 -4 0 0 -17 11
-39z"/>
<path d="M12811 5994 c0 -11 3 -14 6 -6 3 7 2 16 -1 19 -3 4 -6 -2 -5 -13z"/>
<path d="M12756 5865 c-3 -9 -6 -22 -5 -28 0 -7 5 -1 10 12 5 13 8 26 5 28 -2
2 -6 -3 -10 -12z"/>
<path d="M12691 5824 c0 -11 3 -14 6 -6 3 7 2 16 -1 19 -3 4 -6 -2 -5 -13z"/>
<path d="M12681 5784 c0 -11 3 -14 6 -6 3 7 2 16 -1 19 -3 4 -6 -2 -5 -13z"/>
<path d="M12731 5774 c0 -11 3 -14 6 -6 3 7 2 16 -1 19 -3 4 -6 -2 -5 -13z"/>
<path d="M12716 5724 c-4 -14 -5 -28 -3 -31 3 -2 8 8 11 23 4 14 5 28 3 31 -3
2 -8 -8 -11 -23z"/>
<path d="M12672 5720 c0 -14 2 -19 5 -12 2 6 2 18 0 25 -3 6 -5 1 -5 -13z"/>
<path d="M12691 5605 c-6 -42 -10 -97 -10 -123 1 -33 4 -23 10 38 5 47 13 102
18 123 5 20 5 37 1 37 -4 0 -13 -34 -19 -75z"/>
<path d="M12666 5505 c2 -82 7 -166 13 -185 8 -30 9 -25 8 37 -1 39 -5 69 -9
67 -4 -3 -9 48 -11 113 -2 65 -3 51 -1 -32z"/>
<path d="M12692 5260 c0 -24 25 -115 27 -95 0 6 -6 35 -14 65 -7 30 -13 44
-13 30z"/>
<path d="M4700 6999 c-125 -15 -244 -61 -345 -133 -70 -50 -180 -161 -220
-222 -41 -62 -85 -188 -84 -241 1 -38 1 -38 9 -8 5 17 14 56 20 88 6 32 20 65
30 75 10 9 30 42 43 72 24 52 66 114 67 97 0 -4 -11 -24 -24 -45 -67 -102 -94
-293 -61 -422 41 -161 144 -309 258 -373 45 -25 52 -26 100 -15 77 16 258 5
337 -22 186 -62 325 -194 365 -346 57 -220 -43 -480 -218 -563 -125 -59 -271
-66 -370 -17 -129 64 -207 155 -215 252 -4 52 -4 53 43 98 26 25 51 46 56 46
5 0 9 -29 9 -65 0 -152 109 -251 275 -249 88 1 143 25 213 94 70 69 95 136 96
255 1 81 -2 97 -30 155 -37 78 -71 120 -131 161 -113 78 -255 109 -392 85
-209 -37 -370 -172 -447 -376 -26 -69 -28 -86 -29 -215 0 -199 32 -306 140
-469 118 -178 291 -310 495 -379 156 -53 181 -57 400 -64 150 -4 193 -2 300
16 210 37 373 113 539 251 36 30 62 46 58 36 -4 -11 -3 -15 4 -11 6 4 8 13 5
21 -3 8 10 35 30 61 51 67 90 148 115 244 19 70 23 108 22 229 -1 126 -5 157
-28 235 -34 115 -90 223 -162 309 -74 90 -32 63 68 -43 47 -50 87 -104 107
-145 34 -70 37 -81 23 -72 -5 4 -7 -3 -4 -14 3 -11 1 -20 -4 -20 -5 0 -5 -22
1 -54 6 -30 13 -53 17 -51 3 3 5 -17 3 -43 -4 -48 0 -48 10 1 4 16 11 25 17
21 6 -3 3 6 -7 22 -11 15 -13 25 -6 21 7 -5 12 -3 12 5 0 9 3 9 10 -2 14 -21
12 -60 -2 -60 -6 0 -4 -6 6 -13 24 -17 34 -196 17 -302 -31 -191 -129 -376
-268 -506 -62 -58 -188 -143 -267 -180 -155 -72 -407 -114 -636 -106 -186 8
-213 11 -312 36 -344 89 -600 316 -709 631 -20 55 -23 86 -23 205 -1 77 2 169
6 205 l7 65 -15 -45 c-18 -57 -25 -223 -13 -317 44 -344 349 -655 739 -757
165 -42 445 -54 605 -26 28 5 64 12 80 15 269 44 482 168 640 370 111 141 165
275 185 453 22 200 -31 433 -132 580 -43 63 -189 204 -205 197 -8 -2 -37 14
-66 36 -73 56 -237 134 -332 158 -44 11 -147 27 -230 36 -347 35 -390 44 -499
95 -76 36 -168 128 -202 202 -25 55 -29 75 -29 158 0 84 3 101 28 150 65 127
181 202 311 202 114 -1 195 -40 257 -125 35 -48 37 -86 6 -115 -22 -21 -24
-21 -73 -5 -148 47 -277 -87 -234 -242 60 -213 437 -263 600 -78 76 86 89 221
37 371 -99 286 -453 481 -797 441z m-340 -241 c-122 -120 -151 -301 -79 -494
46 -123 150 -232 286 -301 51 -26 93 -47 93 -48 0 -1 -37 -1 -82 0 -100 1
-137 18 -227 101 -188 174 -212 482 -55 696 30 40 96 98 113 98 2 0 -20 -23
-49 -52z m916 -1316 c58 -89 78 -156 78 -267 1 -87 -2 -107 -25 -155 -37 -80
-81 -125 -161 -165 -82 -41 -148 -46 -213 -16 -39 18 -97 69 -64 56 8 -3 47
11 87 30 148 74 242 239 246 432 1 51 5 96 9 99 4 4 7 1 7 -6 0 -7 3 -11 6 -8
3 4 -2 18 -11 32 -13 20 -14 25 -3 21 7 -3 27 -27 44 -53z m933 -142 c0 -8 -6
0 -13 18 -6 18 -15 30 -19 25 -5 -4 -5 1 -1 12 7 17 9 16 20 -10 7 -17 13 -37
13 -45z m-703 -290 c-12 -121 -89 -234 -205 -304 -95 -57 -150 -70 -291 -69
-141 0 -178 8 -299 65 -74 34 -100 54 -183 138 -98 99 -128 144 -64 95 19 -15
81 -46 138 -69 57 -23 131 -59 163 -79 84 -53 121 -61 280 -61 124 -1 146 2
198 23 76 30 156 111 199 200 28 57 33 80 37 166 l5 100 13 -80 c8 -44 12
-100 9 -125z"/>
<path d="M4222 6510 c0 -14 2 -19 5 -12 2 6 2 18 0 25 -3 6 -5 1 -5 -13z"/>
<path d="M4212 6435 c0 -28 4 -42 9 -34 4 7 6 26 4 42 -6 48 -14 43 -13 -8z"/>
<path d="M4212 6350 c0 -19 2 -27 5 -17 2 9 2 25 0 35 -3 9 -5 1 -5 -18z"/>
<path d="M4260 6241 c0 -5 5 -13 10 -16 6 -3 10 -2 10 4 0 5 -4 13 -10 16 -5
3 -10 2 -10 -4z"/>
<path d="M4235 6219 c10 -31 34 -79 41 -79 2 0 -2 13 -11 30 -8 16 -15 36 -15
44 0 8 -5 18 -11 22 -8 4 -9 -1 -4 -17z"/>
<path d="M4280 6201 c0 -6 4 -13 10 -16 6 -3 7 1 4 9 -7 18 -14 21 -14 7z"/>
<path d="M4345 6040 c21 -22 41 -40 44 -40 3 0 -13 18 -34 40 -21 22 -41 40
-44 40 -3 0 13 -18 34 -40z"/>
<path d="M4370 6076 c0 -2 8 -10 18 -17 15 -13 16 -12 3 4 -13 16 -21 21 -21
13z"/>
<path d="M4400 5996 c0 -2 8 -10 18 -17 15 -13 16 -12 3 4 -13 16 -21 21 -21
13z"/>
<path d="M4454 5956 c11 -9 24 -16 30 -16 12 0 7 5 -24 19 -24 11 -24 11 -6
-3z"/>
<path d="M5240 5272 c0 -26 -7 -74 -15 -105 -30 -114 -79 -182 -179 -249 -49
-32 -64 -38 -81 -30 -28 13 -56 -1 -37 -20 9 -9 12 -9 12 0 0 7 5 12 10 12 6
0 10 -7 10 -15 0 -19 14 -19 30 0 7 9 28 23 47 32 64 30 131 101 169 178 30
61 37 87 41 159 3 47 3 86 -1 86 -3 0 -6 -22 -6 -48z"/>
<path d="M5285 5265 c3 -16 6 -73 8 -127 1 -53 6 -94 11 -91 12 8 1 207 -13
229 -10 16 -11 15 -6 -11z"/>
<path d="M5325 5100 c-4 -23 -5 -44 -2 -46 3 -3 8 13 12 36 4 23 5 44 2 46 -3
3 -8 -13 -12 -36z"/>
<path d="M5480 5006 c0 -9 -7 -31 -16 -48 -11 -22 -13 -33 -5 -41 8 -8 11 -7
13 4 2 20 4 30 13 62 4 15 5 31 1 34 -3 4 -6 -1 -6 -11z"/>
<path d="M5426 4885 c-9 -14 -42 -51 -74 -82 -32 -32 -43 -48 -26 -36 18 13
46 39 63 58 17 20 31 30 31 23 0 -7 -17 -30 -37 -52 -34 -35 -35 -37 -7 -15
42 32 90 107 77 120 -7 7 -16 1 -27 -16z"/>
<path d="M4574 4856 c11 -9 24 -16 30 -16 12 0 7 5 -24 19 -24 11 -24 11 -6
-3z"/>
<path d="M4560 4827 c0 -2 15 -16 33 -33 l32 -29 -29 33 c-28 30 -36 37 -36
29z"/>
<path d="M4690 4803 c30 -16 69 -37 85 -47 25 -15 26 -15 10 -1 -30 25 -96 62
-125 70 -14 3 0 -7 30 -22z"/>
<path d="M4630 4766 c0 -3 9 -10 20 -16 11 -6 20 -8 20 -6 0 3 -9 10 -20 16
-11 6 -20 8 -20 6z"/>
<path d="M5240 4730 c-9 -6 -10 -10 -3 -10 6 0 15 5 18 10 8 12 4 12 -15 0z"/>
<path d="M5245 4704 c-27 -13 -44 -24 -37 -24 15 0 92 38 92 45 0 6 4 8 -55
-21z"/>
<path d="M4998 4653 c12 -2 32 -2 45 0 12 2 2 4 -23 4 -25 0 -35 -2 -22 -4z"/>
<path d="M8822 6759 c-23 -12 -49 -34 -57 -50 -24 -45 -18 -140 15 -263 60
-223 74 -344 74 -631 1 -285 -4 -336 -75 -775 -47 -287 -58 -419 -39 -476 9
-26 41 -67 99 -124 68 -68 105 -96 177 -133 280 -144 564 -159 634 -34 17 30
19 22 -63 232 -63 161 -71 370 -32 795 32 338 35 379 41 570 9 269 -11 391
-91 550 -57 113 -263 275 -420 331 -33 11 -96 23 -140 26 -69 4 -86 1 -123
-18z m78 -386 c37 -98 78 -278 96 -416 13 -106 15 -180 11 -377 -6 -255 -14
-334 -66 -635 -34 -199 -36 -230 -19 -287 31 -106 269 -281 428 -317 25 -6 72
-19 104 -31 33 -11 79 -20 103 -20 27 0 42 -4 38 -10 -10 -15 -167 -12 -253 6
-166 34 -329 118 -439 226 -51 51 -64 70 -73 110 -17 83 -11 166 30 415 22
133 47 301 56 374 20 162 23 532 5 699 -12 118 -37 278 -47 305 -4 8 -4 15 -1
15 3 0 15 -26 27 -57z"/>
<path d="M8936 6150 c4 -30 6 -74 5 -97 -1 -24 2 -43 7 -43 11 0 22 25 21 43
0 7 -4 3 -8 -8 -6 -14 -9 -1 -9 40 -1 33 -6 74 -12 90 -8 25 -9 21 -4 -25z"/>
<path d="M8944 5984 c3 -9 6 -102 6 -206 0 -105 2 -189 5 -186 5 5 8 162 6
321 -1 56 -5 87 -12 87 -6 0 -8 -7 -5 -16z"/>
<path d="M8979 5837 c-3 -50 0 -77 7 -77 6 0 9 23 7 63 -6 95 -9 99 -14 14z"/>
<path d="M8990 5673 c-3 -45 -1 -78 3 -74 4 4 7 41 5 82 l-3 74 -5 -82z"/>
<path d="M8943 5515 c0 -33 2 -45 4 -27 2 18 2 45 0 60 -2 15 -4 0 -4 -33z"/>
<path d="M8982 5545 c0 -16 2 -22 5 -12 2 9 2 23 0 30 -3 6 -5 -1 -5 -18z"/>
<path d="M8983 5440 c0 -36 2 -50 4 -32 2 17 2 47 0 65 -2 17 -4 3 -4 -33z"/>
<path d="M8935 5418 c-8 -27 -26 -191 -21 -196 4 -3 6 3 7 14 0 10 6 58 13
107 11 80 12 106 1 75z"/>
<path d="M8973 5325 c0 -27 2 -38 4 -22 2 15 2 37 0 50 -2 12 -4 0 -4 -28z"/>
<path d="M8956 5209 c-3 -17 -5 -43 -5 -58 1 -14 5 -2 10 28 10 58 6 83 -5 30z"/>
<path d="M8896 5161 c-4 -29 -5 -55 -2 -58 6 -7 19 83 14 99 -3 7 -8 -11 -12
-41z"/>
<path d="M8935 5078 c-4 -24 -9 -50 -10 -58 -14 -99 -17 -124 -12 -120 7 8 40
211 34 216 -2 3 -8 -15 -12 -38z"/>
<path d="M8877 5033 c-4 -3 -7 -20 -7 -36 0 -39 11 -28 14 12 2 34 2 34 -7 24z"/>
<path d="M8855 4914 c-9 -62 -1 -65 11 -4 6 28 7 50 3 50 -4 0 -10 -21 -14
-46z"/>
<path d="M8902 4865 c0 -16 2 -22 5 -12 2 9 2 23 0 30 -3 6 -5 -1 -5 -18z"/>
<path d="M8842 4805 c0 -16 2 -22 5 -12 2 9 2 23 0 30 -3 6 -5 -1 -5 -18z"/>
<path d="M8892 4790 c0 -14 2 -19 5 -12 2 6 2 18 0 25 -3 6 -5 1 -5 -13z"/>
<path d="M8892 4685 c0 -16 2 -22 5 -12 2 9 2 23 0 30 -3 6 -5 -1 -5 -18z"/>
<path d="M8842 4645 c0 -16 2 -22 5 -12 2 9 2 23 0 30 -3 6 -5 -1 -5 -18z"/>
<path d="M8900 4644 c0 -11 38 -74 45 -74 2 0 -5 17 -17 38 -27 46 -28 48 -28
36z"/>
<path d="M8920 4518 c41 -45 50 -53 50 -45 0 2 -21 23 -47 47 l-48 45 45 -47z"/>
<path d="M8975 4540 c10 -11 20 -20 23 -20 3 0 -3 9 -13 20 -10 11 -20 20 -23
20 -3 0 3 -9 13 -20z"/>
<path d="M9014 4502 c8 -13 66 -56 66 -49 0 3 -17 17 -37 33 -20 15 -33 23
-29 16z"/>
<path d="M9025 4435 c11 -9 29 -21 40 -26 l20 -10 -20 16 c-11 9 -29 21 -40
26 l-20 10 20 -16z"/>
<path d="M9110 4380 c8 -5 20 -10 25 -10 6 0 3 5 -5 10 -8 5 -19 10 -25 10 -5
0 -3 -5 5 -10z"/>
<path d="M9398 4293 c12 -2 30 -2 40 0 9 3 -1 5 -23 4 -22 0 -30 -2 -17 -4z"/>
<path d="M3920 6720 c0 -5 5 -10 10 -10 6 0 10 5 10 10 0 6 -4 10 -10 10 -5 0
-10 -4 -10 -10z"/>
<path d="M12358 6685 c33 -52 71 -123 67 -127 -2 -2 4 -31 15 -63 10 -33 19
-50 19 -39 1 12 -6 38 -15 59 -8 20 -13 39 -11 42 14 13 78 -208 92 -320 8
-61 8 -335 0 -385 -5 -33 -5 -35 7 -17 9 15 12 76 12 225 -1 197 -2 210 -32
324 -32 122 -86 232 -145 299 -29 32 -29 32 -9 2z"/>
<path d="M3943 6670 c6 -16 13 -27 15 -25 7 7 -8 55 -17 55 -5 0 -4 -13 2 -30z"/>
<path d="M8695 6628 c-20 -70 -20 -74 20 -236 50 -203 67 -359 67 -602 -1
-255 -14 -381 -103 -945 -29 -180 -35 -304 -18 -362 16 -59 109 -177 186 -235
110 -85 322 -173 475 -198 117 -19 254 -10 314 21 65 33 102 87 110 160 6 52
3 64 -40 160 -69 151 -77 199 -77 428 1 192 3 239 36 631 10 107 18 297 18
422 1 126 5 228 8 228 4 0 12 -7 19 -15 20 -24 110 -72 180 -95 97 -33 238
-31 345 3 50 16 83 23 89 17 16 -16 10 -420 -8 -590 -22 -205 -30 -252 -77
-470 -52 -242 -69 -370 -58 -439 22 -140 129 -257 327 -359 135 -69 226 -97
370 -113 274 -30 448 67 411 229 -5 25 -35 95 -67 156 l-57 111 2 235 c1 129
4 251 7 270 2 19 8 184 12 365 7 354 -1 500 -38 725 -26 158 -20 265 16 320
13 20 30 37 38 38 7 0 33 8 58 17 68 25 189 17 255 -18 127 -67 196 -175 235
-367 36 -178 24 -576 -26 -817 -8 -43 -42 -188 -74 -323 -74 -308 -89 -430
-66 -520 41 -161 204 -306 423 -378 102 -34 256 -56 341 -48 163 13 248 66
272 167 18 72 8 121 -39 192 -52 80 -87 167 -101 248 -5 35 -10 174 -10 309 0
135 -4 251 -9 258 -5 8 -8 -111 -7 -270 2 -312 6 -340 69 -470 23 -48 30 -73
24 -84 -6 -10 -5 -20 3 -27 8 -9 10 -8 5 4 -12 33 14 29 34 -5 43 -70 18 -209
-47 -255 -76 -53 -254 -67 -424 -31 -154 32 -248 73 -353 154 -115 90 -165
172 -172 285 -8 108 10 221 77 501 101 424 114 516 114 810 -1 252 -19 368
-78 483 -19 38 -32 76 -29 85 3 12 2 13 -4 5 -7 -9 -21 -1 -52 31 -30 31 -39
45 -29 50 9 4 9 5 -2 3 -8 -1 -44 12 -80 28 -57 26 -76 30 -150 29 -55 0 -98
-6 -122 -16 -25 -11 -38 -13 -40 -6 -2 6 -12 12 -21 14 -9 1 -15 -2 -11 -7 3
-5 10 -7 15 -4 17 11 9 -12 -11 -30 -11 -10 -25 -33 -32 -51 -10 -28 -17 -34
-43 -35 -17 -1 -22 -3 -12 -6 10 -3 14 -9 10 -16 -5 -9 -3 -9 8 0 13 11 15 0
17 -87 1 -54 6 -120 12 -147 37 -161 52 -484 40 -808 -5 -143 -12 -354 -16
-470 -3 -115 -10 -222 -14 -237 -6 -17 -5 -28 1 -28 5 0 9 -15 9 -32 0 -20 24
-80 61 -153 92 -183 91 -249 -9 -315 -62 -41 -135 -54 -277 -47 -157 7 -252
33 -400 107 -181 90 -286 190 -320 304 -28 91 -20 158 59 536 59 285 80 486
81 776 0 174 -3 235 -13 246 -11 14 -20 13 -85 -10 -61 -22 -89 -26 -182 -26
-134 0 -206 19 -305 80 -39 24 -76 41 -83 38 -9 -3 -11 -39 -9 -137 5 -166 -7
-437 -19 -437 -4 0 -6 7 -3 15 4 8 1 15 -5 15 -15 0 -14 -37 1 -42 8 -3 5 -83
-12 -314 -16 -225 -21 -351 -17 -464 6 -169 16 -210 81 -357 74 -167 33 -279
-116 -319 -145 -38 -357 3 -588 114 -100 49 -125 66 -196 136 -145 146 -153
191 -100 531 110 710 124 892 91 1225 -15 158 -20 187 -59 334 -25 95 -32 177
-20 223 4 13 10 20 15 17 5 -3 9 4 9 15 0 39 -19 21 -35 -31z"/>
<path d="M4805 6621 c-121 -56 -170 -201 -110 -329 16 -35 29 -51 36 -46 8 4
9 3 5 -4 -6 -11 42 -87 50 -79 2 2 -8 25 -21 52 -20 38 -25 64 -25 122 0 88
14 127 71 188 53 57 105 85 159 85 58 0 49 16 -12 24 -82 9 -110 7 -153 -13z
m15 -21 c-20 -13 -33 -13 -25 0 3 6 14 10 23 10 15 0 15 -2 2 -10z m-26 -16
c9 -3 13 -11 9 -18 -4 -6 -8 -15 -9 -21 -1 -5 -17 -34 -35 -64 -31 -50 -34
-60 -34 -137 0 -70 -2 -79 -12 -61 -47 85 -36 201 25 268 19 22 36 39 37 39 2
0 10 -3 19 -6z"/>
<path d="M4753 6518 c-2 -16 1 -17 13 -8 17 15 17 17 1 23 -8 3 -14 -3 -14
-15z"/>
<path d="M3955 6621 c-3 -5 -2 -12 3 -15 5 -3 9 1 9 9 0 17 -3 19 -12 6z"/>
<path d="M11106 6543 c-6 -14 -5 -15 5 -6 7 7 10 15 7 18 -3 3 -9 -2 -12 -12z"/>
<path d="M11303 6553 c9 -2 23 -2 30 0 6 3 -1 5 -18 5 -16 0 -22 -2 -12 -5z"/>
<path d="M11388 6553 c12 -2 30 -2 40 0 9 3 -1 5 -23 4 -22 0 -30 -2 -17 -4z"/>
<path d="M4110 6549 c0 -2 -4 -19 -9 -37 -5 -17 -6 -32 -2 -32 10 0 24 61 16
68 -3 3 -5 3 -5 1z"/>
<path d="M4093 6400 c0 -30 2 -43 4 -27 2 15 2 39 0 55 -2 15 -4 2 -4 -28z"/>
<path d="M3941 6404 c0 -11 3 -14 6 -6 3 7 2 16 -1 19 -3 4 -6 -2 -5 -13z"/>
<path d="M9544 6408 c-4 -6 -2 -14 4 -16 6 -2 9 -11 6 -20 -4 -12 -2 -12 7 2
9 15 9 21 1 24 -7 2 -10 8 -6 13 3 5 3 9 0 9 -3 0 -8 -5 -12 -12z"/>
<path d="M8781 6344 c0 -11 3 -14 6 -6 3 7 2 16 -1 19 -3 4 -6 -2 -5 -13z"/>
<path d="M12477 6347 c-3 -9 -2 -19 4 -23 15 -9 18 -2 9 20 -6 17 -7 18 -13 3z"/>
<path d="M8787 6285 c7 -49 13 -58 13 -19 0 16 -5 36 -10 44 -6 10 -7 2 -3
-25z"/>
<path d="M9586 6305 c-9 -26 -7 -32 5 -12 6 10 9 21 6 23 -2 3 -7 -2 -11 -11z"/>
<path d="M5595 6212 c-41 -65 -112 -140 -155 -162 l-35 -19 56 -1 c42 0 64 6
90 23 32 21 79 80 79 98 0 20 -20 7 -26 -16 -7 -30 -68 -85 -94 -85 -10 0 -26
-3 -36 -7 -9 -3 4 14 31 38 26 24 65 70 87 102 l39 58 43 -45 c106 -109 226
-158 380 -157 111 0 181 18 236 61 44 34 65 46 57 34 -3 -6 -1 -16 4 -24 6
-11 8 -4 6 22 -1 21 -3 38 -3 38 -1 0 -24 -18 -50 -40 -71 -58 -128 -75 -254
-75 -162 1 -256 40 -371 156 -27 27 -50 49 -51 49 -2 0 -16 -21 -33 -48z"/>
<path d="M4050 6211 c0 -27 47 -158 73 -201 11 -19 55 -71 98 -115 l77 -80 38
17 c22 10 47 18 57 18 9 0 17 5 17 10 0 14 -11 13 -53 -5 -20 -8 -43 -15 -51
-15 -22 0 -79 58 -70 71 5 8 3 9 -6 4 -33 -20 -160 201 -160 279 0 13 -4 28
-10 31 -5 3 -10 -3 -10 -14z"/>
<path d="M8641 6144 c0 -11 3 -14 6 -6 3 7 2 16 -1 19 -3 4 -6 -2 -5 -13z"/>
<path d="M11098 6103 c2 -32 9 -62 14 -68 7 -7 9 -3 5 13 -3 12 -1 20 4 16 5
-3 9 0 9 5 0 6 -5 11 -11 11 -8 0 -10 14 -6 40 3 28 1 40 -7 40 -9 0 -11 -16
-8 -57z"/>
<path d="M11801 6144 c0 -11 3 -14 6 -6 3 7 2 16 -1 19 -3 4 -6 -2 -5 -13z"/>
<path d="M8651 6094 c0 -11 3 -14 6 -6 3 7 2 16 -1 19 -3 4 -6 -2 -5 -13z"/>
<path d="M9807 6089 c7 -7 15 -10 18 -7 3 3 -2 9 -12 12 -14 6 -15 5 -6 -5z"/>
<path d="M12482 6080 c0 -14 2 -19 5 -12 2 6 2 18 0 25 -3 6 -5 1 -5 -13z"/>
<path d="M10393 6045 c0 -27 2 -38 4 -22 2 15 2 37 0 50 -2 12 -4 0 -4 -28z"/>
<path d="M11811 6044 c0 -11 3 -14 6 -6 3 7 2 16 -1 19 -3 4 -6 -2 -5 -13z"/>
<path d="M12482 6020 c0 -14 2 -19 5 -12 2 6 2 18 0 25 -3 6 -5 1 -5 -13z"/>
<path d="M8691 5984 c0 -11 3 -14 6 -6 3 7 2 16 -1 19 -3 4 -6 -2 -5 -13z"/>
<path d="M10048 5993 c6 -2 18 -2 25 0 6 3 1 5 -13 5 -14 0 -19 -2 -12 -5z"/>
<path d="M11112 5975 c0 -16 2 -22 5 -12 2 9 2 23 0 30 -3 6 -5 -1 -5 -18z"/>
<path d="M8672 5955 c0 -16 2 -22 5 -12 2 9 2 23 0 30 -3 6 -5 -1 -5 -18z"/>
<path d="M11135 5940 c-4 -6 -10 -8 -14 -6 -4 3 -8 -5 -8 -17 -2 -20 -1 -20 8
-4 6 9 14 15 20 12 5 -4 9 1 9 9 0 18 -6 21 -15 6z"/>
<path d="M12481 5934 c0 -11 3 -14 6 -6 3 7 2 16 -1 19 -3 4 -6 -2 -5 -13z"/>
<path d="M4347 5889 c7 -7 15 -10 18 -7 3 3 -2 9 -12 12 -14 6 -15 5 -6 -5z"/>
<path d="M11821 5884 c0 -11 3 -14 6 -6 3 7 2 16 -1 19 -3 4 -6 -2 -5 -13z"/>
<path d="M9612 5780 c0 -19 2 -27 5 -17 2 9 2 25 0 35 -3 9 -5 1 -5 -18z"/>
<path d="M12471 5744 c0 -11 3 -14 6 -6 3 7 2 16 -1 19 -3 4 -6 -2 -5 -13z"/>
<path d="M12541 5744 c0 -11 3 -14 6 -6 3 7 2 16 -1 19 -3 4 -6 -2 -5 -13z"/>
<path d="M10392 5675 c0 -16 2 -22 5 -12 2 9 2 23 0 30 -3 6 -5 -1 -5 -18z"/>
<path d="M8681 5644 c0 -11 3 -14 6 -6 3 7 2 16 -1 19 -3 4 -6 -2 -5 -13z"/>
<path d="M9604 5646 c-3 -8 -4 -27 -2 -43 3 -23 5 -20 9 15 5 43 2 53 -7 28z"/>
<path d="M3886 5588 c-5 -24 -2 -36 9 -44 12 -9 13 -13 3 -16 -7 -3 -3 -7 10
-10 15 -4 20 -2 15 5 -4 6 -6 27 -5 47 1 27 -1 30 -7 15 -5 -11 -7 -23 -4 -27
2 -5 0 -8 -6 -8 -6 0 -7 15 -4 35 7 44 -2 46 -11 3z"/>
<path d="M3933 5585 c0 -8 4 -12 9 -9 5 3 6 10 3 15 -9 13 -12 11 -12 -6z"/>
<path d="M11802 5580 c0 -14 2 -19 5 -12 2 6 2 18 0 25 -3 6 -5 1 -5 -13z"/>
<path d="M9602 5535 c0 -16 2 -22 5 -12 2 9 2 23 0 30 -3 6 -5 -1 -5 -18z"/>
<path d="M775 5541 c-3 -5 -1 -12 5 -16 5 -3 10 1 10 9 0 18 -6 21 -15 7z"/>
<path d="M8821 5534 c0 -11 3 -14 6 -6 3 7 2 16 -1 19 -3 4 -6 -2 -5 -13z"/>
<path d="M6411 5504 c0 -11 3 -14 6 -6 3 7 2 16 -1 19 -3 4 -6 -2 -5 -13z"/>
<path d="M6413 5415 c0 -38 2 -53 4 -32 2 20 2 52 0 70 -2 17 -4 1 -4 -38z"/>
<path d="M9631 5464 c0 -11 3 -14 6 -6 3 7 2 16 -1 19 -3 4 -6 -2 -5 -13z"/>
<path d="M9587 5433 c-4 -3 -7 -15 -7 -26 0 -25 13 -14 17 13 3 21 1 24 -10
13z"/>
<path d="M11112 5410 c0 -19 2 -27 5 -17 2 9 2 25 0 35 -3 9 -5 1 -5 -18z"/>
<path d="M3841 5404 c0 -11 3 -14 6 -6 3 7 2 16 -1 19 -3 4 -6 -2 -5 -13z"/>
<path d="M8642 5400 c0 -14 2 -19 5 -12 2 6 2 18 0 25 -3 6 -5 1 -5 -13z"/>
<path d="M8787 5390 c-3 -11 -1 -20 4 -20 5 0 9 9 9 20 0 11 -2 20 -4 20 -2 0
-6 -9 -9 -20z"/>
<path d="M11772 5390 c0 -14 2 -19 5 -12 2 6 2 18 0 25 -3 6 -5 1 -5 -13z"/>
<path d="M11111 5354 c0 -11 3 -14 6 -6 3 7 2 16 -1 19 -3 4 -6 -2 -5 -13z"/>
<path d="M9580 5350 c0 -5 5 -10 11 -10 5 0 7 5 4 10 -3 6 -8 10 -11 10 -2 0
-4 -4 -4 -10z"/>
<path d="M6413 5220 c0 -47 2 -66 4 -42 2 23 2 61 0 85 -2 23 -4 4 -4 -43z"/>
<path d="M8634 5278 c-4 -6 -2 -14 4 -16 7 -2 12 -8 12 -13 0 -16 -30 3 -31
20 0 10 -4 8 -10 -8 -5 -13 -7 -26 -4 -29 3 -3 5 0 5 6 0 6 7 9 15 6 10 -4 14
-14 10 -28 -5 -18 -4 -17 9 4 17 29 20 56 7 65 -5 3 -13 0 -17 -7z"/>
<path d="M3843 5265 c0 -11 4 -12 14 -4 7 6 13 13 13 15 0 2 -6 4 -13 4 -8 0
-14 -7 -14 -15z"/>
<path d="M11101 5253 c0 -25 1 -26 9 -8 12 27 12 35 0 35 -5 0 -10 -12 -9 -27z"/>
<path d="M12542 5260 c0 -14 2 -19 5 -12 2 6 2 18 0 25 -3 6 -5 1 -5 -13z"/>
<path d="M8781 5214 c0 -11 3 -14 6 -6 3 7 2 16 -1 19 -3 4 -6 -2 -5 -13z"/>
<path d="M11100 5211 c0 -6 4 -13 10 -16 6 -3 7 1 4 9 -7 18 -14 21 -14 7z"/>
<path d="M12496 5157 c8 -75 52 -213 104 -329 103 -232 284 -424 520 -553 135
-74 207 -101 339 -126 91 -18 134 -20 306 -16 183 3 208 6 290 31 329 101 548
296 705 630 57 120 88 223 95 316 3 45 2 56 -4 35 -5 -16 -9 -45 -10 -63 0
-19 -5 -31 -11 -27 -5 3 -7 0 -4 -9 18 -46 -147 -429 -177 -411 -5 4 -6 0 -4
-8 18 -45 -266 -326 -313 -311 -13 4 -14 3 -4 -4 17 -11 -122 -87 -144 -78 -8
3 -13 2 -10 -3 7 -10 -51 -33 -164 -63 -75 -20 -108 -23 -275 -23 -285 0 -396
26 -605 140 -304 166 -499 412 -589 745 -11 41 -27 98 -35 125 l-15 50 5 -48z"/>
<path d="M9562 5160 c0 -14 2 -19 5 -12 2 6 2 18 0 25 -3 6 -5 1 -5 -13z"/>
<path d="M9560 5117 c0 -9 4 -18 9 -21 5 -4 8 1 7 9 -3 21 -16 31 -16 12z"/>
<path d="M4031 5059 c0 -24 4 -53 9 -64 5 -12 6 4 3 40 -7 72 -13 85 -12 24z"/>
<path d="M9554 5066 c-3 -8 -4 -31 -2 -52 3 -36 4 -35 8 14 5 53 4 63 -6 38z"/>
<path d="M12413 5015 c0 -22 2 -30 4 -17 2 12 2 30 0 40 -3 9 -5 -1 -4 -23z"/>
<path d="M8565 5031 c-3 -5 -2 -12 3 -15 5 -3 9 1 9 9 0 17 -3 19 -12 6z"/>
<path d="M3687 4953 c-10 -9 -9 -23 1 -23 5 0 9 7 9 15 0 17 -1 18 -10 8z"/>
<path d="M12400 4867 c0 -47 3 -88 8 -91 8 -5 4 165 -4 173 -2 2 -4 -34 -4
-82z"/>
<path d="M14755 4899 c-4 -6 -5 -12 -2 -15 2 -3 7 2 10 11 7 17 1 20 -8 4z"/>
<path d="M3540 4815 c-7 -9 -8 -15 -2 -15 5 0 12 7 16 15 3 8 4 15 2 15 -2 0
-9 -7 -16 -15z"/>
<path d="M8397 4783 c4 -11 8 -13 11 -5 2 7 8 10 13 6 5 -3 9 0 9 5 0 6 -9 11
-20 11 -14 0 -18 -5 -13 -17z"/>
<path d="M9573 4784 c0 -7 6 -10 14 -7 7 3 13 8 13 12 0 4 -6 8 -13 8 -8 0
-14 -6 -14 -13z"/>
<path d="M11128 4750 c3 -18 0 -30 -7 -30 -6 0 -11 -4 -11 -10 0 -5 7 -7 15
-4 16 6 22 74 7 74 -5 0 -7 -13 -4 -30z"/>
<path d="M12405 4750 c3 -5 8 -10 11 -10 2 0 4 5 4 10 0 6 -5 10 -11 10 -5 0
-7 -4 -4 -10z"/>
<path d="M8347 4743 c-4 -3 -7 -11 -7 -17 0 -6 5 -5 12 2 6 6 9 14 7 17 -3 3
-9 2 -12 -2z"/>
<path d="M6393 4695 c0 -22 2 -30 4 -17 2 12 2 30 0 40 -3 9 -5 -1 -4 -23z"/>
<path d="M12412 4705 c0 -16 2 -22 5 -12 2 9 2 23 0 30 -3 6 -5 -1 -5 -18z"/>
<path d="M9576 4708 c3 -5 10 -6 15 -3 13 9 11 12 -6 12 -8 0 -12 -4 -9 -9z"/>
<path d="M11129 4693 c-5 -29 -5 -53 -1 -48 7 6 12 55 6 55 -2 0 -5 -3 -5 -7z"/>
<path d="M8702 4640 c0 -14 2 -19 5 -12 2 6 2 18 0 25 -3 6 -5 1 -5 -13z"/>
<path d="M11120 4545 c0 -5 5 -17 10 -25 5 -8 10 -10 10 -5 0 6 -5 17 -10 25
-5 8 -10 11 -10 5z"/>
<path d="M12490 4460 c6 -11 13 -20 16 -20 2 0 0 9 -6 20 -6 11 -13 20 -16 20
-2 0 0 -9 6 -20z"/>
<path d="M9621 4465 c0 -5 8 -26 19 -45 11 -19 19 -30 19 -25 0 6 -8 26 -19
45 -11 19 -19 31 -19 25z"/>
<path d="M12552 4315 c0 -16 2 -22 5 -12 2 9 2 23 0 30 -3 6 -5 -1 -5 -18z"/>
<path d="M9762 4260 c0 -19 2 -27 5 -17 2 9 2 25 0 35 -3 9 -5 1 -5 -18z"/>
<path d="M14030 4280 c-20 -6 -21 -8 -5 -8 11 0 29 3 40 8 25 11 -1 11 -35 0z"/>
<path d="M2528 4233 c6 -2 18 -2 25 0 6 3 1 5 -13 5 -14 0 -19 -2 -12 -5z"/>
<path d="M5318 4233 c7 -3 16 -2 19 1 4 3 -2 6 -13 5 -11 0 -14 -3 -6 -6z"/>
<path d="M7131 4094 c0 -11 3 -14 6 -6 3 7 2 16 -1 19 -3 4 -6 -2 -5 -13z"/>
<path d="M10990 4070 c0 -5 11 -10 25 -10 14 0 25 5 25 10 0 6 -11 10 -25 10
-14 0 -25 -4 -25 -10z"/>
<path d="M12215 4070 c-3 -6 1 -7 9 -4 18 7 21 14 7 14 -6 0 -13 -4 -16 -10z"/>
<path d="M7122 4025 c0 -16 2 -22 5 -12 2 9 2 23 0 30 -3 6 -5 -1 -5 -18z"/>
<path d="M7112 3900 c0 -14 2 -19 5 -12 2 6 2 18 0 25 -3 6 -5 1 -5 -13z"/>
<path d="M7101 3830 c0 -29 1 -32 10 -17 7 11 7 23 0 35 -9 14 -10 11 -10 -18z"/>
<path d="M7132 3640 c0 -14 2 -19 5 -12 2 6 2 18 0 25 -3 6 -5 1 -5 -13z"/>
<path d="M7052 3380 c0 -14 2 -19 5 -12 2 6 2 18 0 25 -3 6 -5 1 -5 -13z"/>
<path d="M717 3374 c-4 -4 -7 -25 -7 -46 l0 -38 48 0 48 0 -4 -165 -4 -165 51
0 51 0 0 58 c0 33 3 107 6 165 l7 106 56 3 56 3 0 40 0 40 -151 3 c-82 1 -153
-1 -157 -4z"/>
<path d="M1134 3366 c-92 -40 -143 -215 -95 -322 25 -54 66 -82 132 -90 79 -9
131 8 173 58 88 102 64 311 -40 354 -42 18 -129 17 -170 0z m127 -85 c19 -15
24 -30 27 -88 5 -81 -14 -137 -52 -154 -60 -28 -106 20 -106 111 0 118 66 184
131 131z"/>
<path d="M1459 3344 c-1 -21 -4 -117 -8 -212 l-6 -172 106 0 c94 0 110 3 140
23 19 12 45 43 59 67 20 38 24 58 25 135 0 73 -4 97 -21 125 -29 50 -62 62
-186 68 l-108 5 -1 -39z m209 -84 c8 -16 12 -48 9 -93 -6 -89 -27 -121 -85
-125 l-42 -3 0 58 c0 32 3 89 7 126 l6 68 46 -3 c37 -2 48 -8 59 -28z"/>
<path d="M1909 3360 c-58 -31 -89 -103 -89 -208 0 -144 48 -197 176 -197 62 0
75 3 108 29 54 41 79 102 79 196 1 93 -27 155 -83 182 -48 24 -144 23 -191 -2z
m131 -70 c58 -31 51 -214 -11 -249 -59 -33 -109 16 -109 107 0 113 54 177 120
142z"/>
<path d="M2356 3318 c-3 -35 -8 -130 -11 -211 l-6 -148 113 3 113 3 0 35 0 35
-59 -1 -59 -2 7 174 6 174 -49 0 -49 0 -6 -62z"/>
<path d="M2678 3360 c-59 -32 -91 -96 -96 -196 -7 -128 32 -191 131 -209 139
-26 237 69 237 230 0 73 -40 149 -91 175 -50 26 -131 26 -181 0z m117 -66 c46
-18 63 -160 25 -221 -20 -34 -55 -49 -88 -39 -43 14 -67 125 -41 193 22 58 61
83 104 67z"/>
<path d="M3116 3371 c-3 -5 -9 -99 -12 -210 l-7 -201 51 0 52 0 0 64 0 64 64
4 c72 4 100 21 122 75 35 81 3 176 -66 200 -41 14 -196 17 -204 4z m184 -100
c29 -54 -5 -111 -65 -111 l-35 0 0 65 0 65 45 0 c34 0 47 -5 55 -19z"/>
<path d="M3436 3225 c-7 -142 -6 -158 13 -200 26 -59 69 -79 155 -73 55 4 62
8 97 47 42 47 45 60 53 264 l4 118 -51 -3 -51 -3 -3 -100 c-5 -163 -11 -206
-29 -226 -22 -25 -56 -24 -79 1 -16 18 -17 34 -10 175 l7 155 -50 0 -49 0 -7
-155z"/>
<path d="M3800 3283 c0 -54 -3 -149 -7 -210 l-6 -113 126 0 127 0 0 41 0 41
-75 -4 -76 -3 3 45 3 45 58 3 57 3 0 34 0 35 -55 0 -55 0 0 50 0 50 75 0 75 0
0 40 0 40 -125 0 -125 0 0 -97z"/>
<path d="M4096 3338 c-3 -24 -8 -118 -11 -210 l-6 -168 101 0 c107 0 137 9
177 52 34 36 53 92 53 155 0 161 -57 213 -234 213 l-75 0 -5 -42z m180 -56
c33 -22 44 -109 24 -184 -12 -44 -34 -58 -86 -58 l-37 0 6 68 c4 37 7 93 7
125 l0 57 38 0 c20 0 42 -4 48 -8z"/>
<path d="M4555 3366 c-40 -17 -82 -67 -95 -114 -16 -60 -13 -182 8 -222 45
-91 206 -106 290 -27 55 52 69 236 23 310 -37 60 -150 86 -226 53z m114 -83
c49 -40 49 -176 0 -225 -32 -33 -58 -35 -90 -9 -18 14 -23 31 -27 80 -9 126
52 206 117 154z"/>
<path d="M4967 3268 c-4 -62 -7 -157 -7 -210 l0 -98 120 0 c119 0 120 0 126
25 12 50 1 58 -76 53 l-70 -5 0 48 0 49 60 0 60 0 0 38 0 39 -55 -5 -55 -4 0
51 0 51 75 0 75 0 0 40 0 40 -123 0 -124 0 -6 -112z"/>
<path d="M5260 3313 c0 -38 -3 -132 -7 -210 l-6 -143 51 0 51 0 3 133 3 132
39 -105 c62 -167 57 -161 123 -158 66 4 59 -23 67 236 l6 182 -39 0 c-37 0
-39 -2 -45 -37 -3 -21 -6 -85 -6 -142 0 -58 -4 -101 -8 -95 -5 5 -28 59 -51
119 -23 61 -46 120 -51 133 -8 19 -17 22 -70 22 l-60 0 0 -67z"/>
<path d="M7806 3357 c-62 -35 -91 -100 -91 -207 0 -104 19 -144 85 -177 81
-42 181 -24 220 39 26 42 22 59 -14 71 -25 8 -31 6 -53 -22 -30 -39 -73 -42
-107 -8 -66 66 -26 247 55 247 22 0 49 -37 49 -67 0 -19 5 -23 29 -23 47 0 61
10 61 42 0 37 -23 81 -56 107 -38 30 -125 29 -178 -2z"/>
<path d="M8087 3283 c-4 -54 -7 -149 -7 -210 l0 -113 50 0 50 0 0 70 c0 43 4
70 11 70 6 0 25 -31 42 -70 l32 -70 52 0 52 0 -27 74 -26 74 31 36 c73 82 46
211 -48 230 -18 3 -71 6 -119 6 l-87 0 -6 -97z m187 -9 c9 -8 16 -27 16 -41 0
-40 -27 -63 -73 -63 -36 0 -39 2 -33 23 3 12 6 39 6 60 0 36 1 37 34 37 19 0
42 -7 50 -16z"/>
<path d="M8436 3358 c-3 -13 -7 -107 -8 -210 l-3 -188 52 0 53 0 0 128 c0 70
3 164 7 210 l6 82 -51 0 c-45 0 -52 -3 -56 -22z"/>
<path d="M8653 3365 c-68 -29 -96 -133 -52 -190 12 -15 52 -41 88 -58 55 -27
66 -36 66 -57 0 -22 -5 -25 -36 -28 -23 -2 -50 5 -74 18 l-38 21 -20 -20 c-19
-19 -19 -21 -3 -46 47 -71 211 -74 260 -4 9 13 16 43 16 66 0 56 -35 95 -115
127 -50 20 -61 28 -63 51 -5 37 15 57 52 53 24 -2 35 -11 46 -35 15 -32 32
-39 64 -27 34 13 9 111 -33 134 -28 14 -120 12 -158 -5z"/>
<path d="M8897 3373 c-4 -3 -7 -24 -7 -45 l0 -38 50 0 c35 0 48 -4 45 -12 -2
-7 -6 -82 -10 -165 l-6 -153 49 0 c49 0 49 0 56 38 3 20 6 94 6 165 l0 127 50
0 50 0 0 45 0 45 -138 0 c-76 0 -142 -3 -145 -7z"/>
<path d="M9278 3359 c-84 -50 -126 -218 -80 -323 17 -37 30 -51 64 -66 83 -38
198 -17 246 45 32 40 44 99 40 186 -3 83 -17 113 -71 153 -42 31 -150 34 -199
5z m138 -82 c20 -18 28 -35 31 -73 10 -97 -29 -174 -86 -174 -47 0 -71 39 -71
117 0 128 58 188 126 130z"/>
<path d="M9785 3357 c-62 -35 -97 -109 -98 -206 -2 -120 42 -186 131 -198 40
-5 41 -7 44 -47 l3 -41 51 -3 c73 -4 104 10 104 48 0 29 -1 30 -46 30 -52 0
-53 9 -5 42 56 37 74 79 79 179 5 110 -18 168 -79 199 -53 28 -132 26 -184 -3z
m134 -76 c56 -56 31 -237 -33 -249 -59 -12 -96 34 -96 118 0 115 72 188 129
131z"/>
<path d="M10117 3298 c-12 -154 -9 -271 9 -297 57 -81 222 -62 274 31 21 37
24 58 28 195 l5 153 -45 0 -45 0 -10 -155 c-8 -126 -13 -159 -28 -175 -23 -25
-57 -26 -80 0 -16 18 -17 34 -10 175 l7 155 -50 0 -49 0 -6 -82z"/>
<path d="M10480 3322 c0 -33 -3 -127 -7 -210 l-6 -152 131 0 132 0 0 39 0 40
-80 -5 -80 -4 0 50 0 50 65 0 65 0 0 35 0 35 -60 0 -60 0 0 50 0 50 75 0 75 0
0 40 0 40 -125 0 -125 0 0 -58z"/>
<path d="M10866 3318 c-3 -35 -8 -129 -11 -210 l-6 -148 50 0 51 0 0 138 c0
76 3 142 7 146 4 4 20 -47 35 -114 42 -177 39 -172 95 -168 l48 3 27 85 c15
47 36 114 47 150 l20 65 -6 -152 -6 -153 52 0 51 0 2 195 c0 107 1 201 2 208
1 8 -20 12 -73 12 l-74 0 -40 -142 c-38 -134 -56 -173 -57 -120 -1 12 -13 76
-28 142 l-28 120 -76 3 -76 3 -6 -63z"/>
<path d="M11386 3318 c-3 -35 -8 -129 -11 -210 l-6 -148 125 0 126 0 0 40 0
40 -70 0 -70 0 0 45 0 45 65 0 65 0 0 35 0 35 -65 0 -65 0 0 50 0 49 78 3 77
3 0 35 0 35 -122 3 -121 3 -6 -63z"/>
<path d="M11777 3238 c-4 -79 -7 -173 -7 -210 l0 -68 50 0 50 0 0 75 0 75 55
0 55 0 0 45 0 45 -50 0 -50 0 0 51 0 51 65 -4 65 -3 0 43 0 42 -113 0 -114 0
-6 -142z"/>
<path d="M12134 3366 c-41 -18 -89 -79 -104 -132 -18 -63 -9 -177 16 -211 48
-64 124 -87 211 -64 50 14 104 71 121 130 25 83 11 192 -32 240 -43 49 -144
66 -212 37z m120 -85 c42 -47 39 -181 -6 -228 -29 -31 -71 -30 -97 3 -28 36
-36 87 -22 150 19 82 84 121 125 75z"/>
<path d="M12446 3313 c-3 -38 -8 -132 -12 -210 l-6 -143 50 0 51 0 3 67 c4 91
21 92 60 4 l31 -71 55 0 c39 0 53 3 49 13 -3 6 -17 42 -32 80 l-27 67 25 20
c34 27 50 72 44 126 -9 84 -60 114 -196 114 l-89 0 -6 -67z m172 -29 c15 -10
22 -25 22 -46 0 -43 -25 -68 -69 -68 l-36 0 3 65 c4 63 5 65 31 65 14 0 37 -7
49 -16z"/>
<path d="M12777 3373 c-4 -3 -7 -24 -7 -45 l0 -38 45 0 45 0 -7 -165 -6 -165
51 0 52 0 0 113 c0 61 3 136 6 165 l7 52 48 0 49 0 0 45 0 45 -138 0 c-76 0
-142 -3 -145 -7z"/>
<path d="M13142 3363 c-6 -10 -40 -105 -76 -210 l-65 -193 49 0 c49 0 49 0 61
40 10 34 16 40 39 40 15 0 41 3 58 6 30 6 32 5 43 -40 l11 -46 54 0 c30 0 54
3 54 6 0 3 -18 71 -40 152 -21 81 -45 172 -53 202 l-13 55 -56 3 c-46 2 -59 0
-66 -15z m77 -210 c1 -20 -4 -23 -34 -23 -19 0 -35 4 -35 8 0 4 10 37 22 73
l22 64 12 -50 c7 -27 13 -60 13 -72z"/>
<path d="M13416 3358 c-3 -13 -6 -107 -6 -210 l0 -188 104 0 104 0 5 33 c2 17
3 35 0 40 -2 4 -29 7 -60 7 l-55 0 7 170 8 170 -51 0 c-43 0 -50 -3 -56 -22z"/>
<path d="M13667 3273 c-4 -58 -7 -153 -7 -210 l0 -103 121 0 120 0 -3 38 -3
37 -70 0 c-66 0 -70 1 -73 24 -2 12 -1 34 2 47 6 22 11 24 66 24 l60 0 0 35
c0 35 0 35 -47 36 -27 1 -54 1 -61 0 -10 -2 -12 11 -10 46 l3 48 73 3 72 3 0
39 0 40 -118 0 -119 0 -6 -107z"/>
<path d="M14030 3362 c-96 -48 -137 -219 -79 -333 45 -90 177 -107 260 -32 49
45 53 78 8 87 -26 5 -35 1 -56 -24 -33 -40 -82 -42 -112 -4 -29 37 -30 154 -1
201 26 44 67 54 92 23 10 -12 18 -33 18 -46 0 -27 7 -29 61 -12 33 9 39 15 39
38 0 34 -37 91 -70 107 -36 18 -119 16 -160 -5z"/>
<path d="M14297 3243 c-4 -75 -7 -169 -7 -210 l0 -73 120 0 120 0 0 40 0 40
-70 0 -70 0 0 45 0 45 65 0 65 0 0 35 0 35 -65 0 -65 0 0 34 c0 62 5 66 81 66
l69 0 0 40 0 40 -118 0 -119 0 -6 -137z"/>
<path d="M7042 3275 c0 -16 2 -22 5 -12 2 9 2 23 0 30 -3 6 -5 -1 -5 -18z"/>
<path d="M7041 3184 c0 -11 3 -14 6 -6 3 7 2 16 -1 19 -3 4 -6 -2 -5 -13z"/>
<path d="M6221 3134 c0 -11 3 -14 6 -6 3 7 2 16 -1 19 -3 4 -6 -2 -5 -13z"/>
<path d="M7043 3000 c0 -25 2 -35 4 -22 2 12 2 32 0 45 -2 12 -4 2 -4 -23z"/>
<path d="M7052 2900 c0 -14 2 -19 5 -12 2 6 2 18 0 25 -3 6 -5 1 -5 -13z"/>
<path d="M6953 2463 c15 -2 39 -2 55 0 15 2 2 4 -28 4 -30 0 -43 -2 -27 -4z"/>
</g>
</svg>
